SplineFontDB: 3.2
FontName: Anticva-Regular
FullName: Anticva
FamilyName: Anticva
Weight: Regular
Copyright: Copyright (c) 2021, Konstantin Krastev
Version: 1.000
ItalicAngle: 0
UnderlinePosition: -100
UnderlineWidth: 50
Ascent: 800
Descent: 200
InvalidEm: 0
sfntRevision: 0x00010000
LayerCount: 2
Layer: 0 0 "Back" 1
Layer: 1 0 "Fore" 0
XUID: [1021 320 -1069343883 2204555]
StyleMap: 0x0000
FSType: 0
OS2Version: 4
OS2_WeightWidthSlopeOnly: 0
OS2_UseTypoMetrics: 1
CreationTime: 1615562478
ModificationTime: 1616496580
PfmFamily: 17
TTFWeight: 400
TTFWidth: 5
LineGap: 90
VLineGap: 0
Panose: 2 0 5 3 0 0 0 0 0 0
OS2TypoAscent: 800
OS2TypoAOffset: 0
OS2TypoDescent: -200
OS2TypoDOffset: 0
OS2TypoLinegap: 90
OS2WinAscent: 913
OS2WinAOffset: 0
OS2WinDescent: 199
OS2WinDOffset: 0
HheadAscent: 913
HheadAOffset: 0
HheadDescent: -199
HheadDOffset: 0
OS2SubXSize: 650
OS2SubYSize: 700
OS2SubXOff: 0
OS2SubYOff: 140
OS2SupXSize: 650
OS2SupYSize: 700
OS2SupXOff: 0
OS2SupYOff: 480
OS2StrikeYSize: 49
OS2StrikeYPos: 258
OS2CapHeight: 787
OS2XHeight: 787
OS2FamilyClass: 2307
OS2Vendor: 'PfEd'
OS2CodePages: 00000004.00000000
OS2UnicodeRanges: 00000200.00000000.00000000.00000000
Lookup: 258 0 0 "'kern' Horizontal Kerning lookup 0" { "'kern' Horizontal Kerning lookup 0 subtable"  } ['kern' ('DFLT' <'dflt' > 'cyrl' <'dflt' > 'latn' <'dflt' > ) ]
Lookup: 258 0 0 "'kern' Horizontal Kerning lookup 1" { "'kern' Horizontal Kerning lookup 1 subtable"  } ['kern' ('DFLT' <'dflt' > 'cyrl' <'dflt' > 'latn' <'dflt' > ) ]
Lookup: 258 0 0 "'kern' Horizontal Kerning lookup 2" { "'kern' Horizontal Kerning lookup 2 subtable"  } ['kern' ('DFLT' <'dflt' > 'cyrl' <'dflt' > 'latn' <'dflt' > ) ]
Lookup: 258 0 0 "'kern' Horizontal Kerning lookup 3" { "'kern' Horizontal Kerning lookup 3 subtable"  } ['kern' ('DFLT' <'dflt' > 'cyrl' <'dflt' > 'latn' <'dflt' > ) ]

StartChar: .notdef
Encoding: 65536 -1 0
Width: 500
Flags: MW
HStem: 0 50<100 400 100 450> 483 50<100 400 100 100>
VStem: 50 50<50 50 50 483> 400 50<50 483 483 483>
LayerCount: 2
Fore
SplineSet
50 0 m 1
 50 533 l 1
 450 533 l 1
 450 0 l 1
 50 0 l 1
100 50 m 1
 400 50 l 1
 400 483 l 1
 100 483 l 1
 100 50 l 1
EndSplineSet
Validated: 1
EndChar

StartChar: exclam
Encoding: 33 33 2
Width: 232
GlyphClass: 2
Flags: MW
HStem: -10 21G<109 109> 779 20G<144 153>
VStem: 69 84<747.5 799.5> 92 32<117 219.5> 144 9<799 799>
LayerCount: 2
Fore
SplineSet
64 41 m 1xc0
 64 42 l 2
 64 46 101 64 111 75 c 0
 116 75 141 42 162 27 c 0
 162 24 129 11 109 -10 c 1
 109 -10 77 30 64 41 c 1xc0
124 135 m 0xd8
 124 129 103 116 95 116 c 0
 93 116 92 116 92 118 c 0xd8
 91 443 69 738 69 757 c 0xe0
 69 759 69 761 70 762 c 0
 83 781 130 797 144 799 c 2
 144 799 153 800 153 799 c 0
 153 741 124 304 124 135 c 0xd8
EndSplineSet
Validated: 1
EndChar

StartChar: quotedbl
Encoding: 34 34 3
Width: 304
GlyphClass: 2
Flags: MW
HStem: 691 109
VStem: 81 43<712.5 760.5> 191 43<712.5 760.5>
LayerCount: 2
Fore
SplineSet
160 765 m 0
 159 765 159 766 159 766 c 1
 159 774 203 800 209 800 c 2
 210 800 l 1
 227 783 234 768 234 753 c 0
 234 727 210 705 185 691 c 1
 189 699 191 708 191 717 c 0
 191 734 183 751 160 765 c 0
50 765 m 0
 49 765 49 766 49 766 c 1
 49 774 93 800 99 800 c 2
 100 800 l 1
 117 783 124 768 124 753 c 0
 124 727 100 705 75 691 c 1
 79 699 81 708 81 717 c 0
 81 734 73 751 50 765 c 0
EndSplineSet
Validated: 1
EndChar

StartChar: numbersign
Encoding: 35 35 4
Width: 467
GlyphClass: 2
Flags: MW
HStem: 321 48<67 71 71 115 184 236 41 166 304 400 400 401.5> 437 48<67 71 71 158 226 278 41 209 346 400 400 401.5>
LayerCount: 2
Fore
SplineSet
184 369 m 1
 253 369 l 1
 278 437 l 1
 209 437 l 1
 200 414 192 391 184 369 c 1
400 369 m 2
 403 369 426 327 426 322 c 2
 426 321 l 1
 287 321 l 1
 276 291 266 263 257 238 c 0
 256 236 219 229 207 229 c 0
 204 229 203 229 203 230 c 2
 236 321 l 1
 166 321 l 1
 155 291 145 263 136 238 c 0
 135 236 99 229 87 229 c 0
 84 229 83 229 83 230 c 2
 115 321 l 1
 71 321 l 2
 63 321 41 364 41 369 c 1
 133 369 l 1
 158 437 l 1
 71 437 l 2
 63 437 41 480 41 485 c 1
 175 485 l 1
 204 564 l 2
 207 571 244 577 256 577 c 0
 258 577 259.344726562 576.938476562 259 576 c 0
 248 546 235 510 226 485 c 1
 295 485 l 1
 324 564 l 2
 327 571 364 577 376 577 c 0
 378 577 379.34765625 576.9375 379 576 c 0
 369 549 355 510 346 485 c 1
 400 485 l 2
 403 485 426 443 426 438 c 2
 426 437 l 1
 329 437 l 1
 320 414 312 391 304 369 c 1
 400 369 l 2
EndSplineSet
Validated: 524289
EndChar

StartChar: dollar
Encoding: 36 36 5
Width: 531
GlyphClass: 2
Flags: MW
HStem: -7 38<234 234 234 270> 765 35<234 234>
VStem: 52 69<576.5 660.5 576.5 676> 234 36<-55.5 -53 -53 -7 32 343 456 765 800 846 846 849> 402 70<178 181 181 181>
LayerCount: 2
Fore
SplineSet
270 32 m 1
 373 43 402 122 402 178 c 2
 402 181 l 2
 401 278 321 317 270 343 c 1
 270 32 l 1
121 613 m 0
 121 540 162 501 234 456 c 1
 234 765 l 1
 175 757 121 708 121 613 c 0
472 181 m 2
 471 54 372 -1 270 -7 c 1
 270 -53 l 2
 270 -58 245 -68 237 -68 c 0
 235 -68 234 -68 234 -67 c 2
 234 -7 l 1
 185 -3 122 19 70 84 c 0
 65 91 52 81 52 81 c 1
 79 145 l 1
 123 54 178 33 234 31 c 1
 234 363 l 1
 119 431 52 495 52 614 c 0
 52 738 161 793 234 800 c 1
 234 846 l 2
 234 852 257 857 266 857 c 0
 269 857 270 857 270 856 c 2
 270 799 l 1
 296 795 335 783 373 750 c 0
 377 747 389 747 395 755 c 1
 372 678 l 1
 346 744 298 761 270 765 c 1
 270 434 l 1
 387 363 472 316 472 183 c 2
 472 181 l 2
EndSplineSet
Validated: 1
EndChar

StartChar: percent
Encoding: 37 37 6
Width: 664
GlyphClass: 2
Flags: MW
HStem: -199 5<-184 -176 -184 -176> 4 16<455.5 472> 270 17<461 480> 503 16<193 210> 769 17<199 217.5> 770 20G<594 605> 770 20G<594 605>
VStem: -184 8<-199 -194 -199 -194> 63 35<653 676.5> 313 33<612.5 636> 325 35<154 177.5> 575 33<113.5 137>
LayerCount: 2
Fore
SplineSet
494 22 m 0xf1b0
 544 33 575 74 575 131 c 0
 575 143 573 155 571 167 c 0
 566 189 557 212 544 229 c 0
 525 255 496 270 464 270 c 0
 456 270 449 270 441 268 c 0
 391 257 360 217 360 160 c 0
 360 148 361 135 364 122 c 0
 369 101 376 83 387 66 c 0
 405 38 438 20 473 20 c 0
 480 20 487 20 494 22 c 0xf1b0
436 284 m 0
 446 286 456 287 466 287 c 0
 531 287 590 242 605 176 c 0
 607 166 608 156 608 146 c 0
 608 81 563 22 497 7 c 0
 487 5 477 4 467 4 c 0
 402 4 343 49 328 115 c 0
 326 125 325 135 325 145 c 0
 325 210 370 269 436 284 c 0
232 521 m 0
 282 532 313 573 313 630 c 0
 313 642 311 654 309 666 c 0
 304 688 296 710 283 727 c 0
 264 753 234 769 201 769 c 0xf9d0
 194 769 186 769 179 767 c 0
 129 756 98 716 98 659 c 0
 98 647 99 634 102 621 c 0
 107 600 115 581 126 564 c 0
 144 536 176 519 210 519 c 0
 217 519 225 519 232 521 c 0
174 783 m 0
 184 785 194 786 204 786 c 0
 269 786 328 741 343 675 c 0
 345 665 346 655 346 645 c 0
 346 580 301 521 235 506 c 0
 225 504 215 503 205 503 c 0
 140 503 81 548 66 614 c 0
 64 624 63 634 63 644 c 0
 63 709 108 768 174 783 c 0
59 7 m 2
 549 774 l 2
 557 785 586 790 602 790 c 0xf590
 608 790 615 789 613 787 c 0
 493 603 264 253 119 15 c 0
 116 10 83 4 67 4 c 0
 61 4 57 5 59 7 c 2
-184 -199 m 1
 -184 -194 l 1
 -176 -194 l 1
 -176 -199 l 1
 -184 -199 l 1
EndSplineSet
Validated: 1
EndChar

StartChar: ampersand
Encoding: 38 38 7
Width: 762
GlyphClass: 2
Flags: MW
HStem: 1 34<252 256 252 288> 758 35<226 287.5>
VStem: 43 74<182 183 183 184 184 184> 63 67<617 617 617 619 617 675.5> 372 74<619 620 557 621 557 665>
LayerCount: 2
Fore
SplineSet
534 0 m 1xd8
 534 0 566 12 566 31 c 0
 566 36 564 41 558 47 c 2
 558 47 516 85 493 107 c 1
 412 19 319 1 257 1 c 0
 153 1 43 54 43 182 c 2
 43 184 l 2xe8
 44 293 154 379 191 400 c 1
 187 404 63 508 63 617 c 0
 63 734 183 793 257 793 c 0
 344 793 445 744 446 620 c 2
 446 619 l 2
 446 495 299 423 274 403 c 1
 334 342 415 266 491 196 c 1
 516 239 537 294 553 360 c 0
 554 364 554 367 554 370 c 0
 554 391 537 394 537 394 c 1
 662 394 l 1
 662 394 625 379 619 357 c 0
 594 263 567 207 533 157 c 1
 564 128 643 55 653 46 c 0
 685 20 706 12 729 0 c 1
 534 0 l 1xd8
130 617 m 2xd8
 131 528 245 432 245 432 c 1
 245 432 370 506 372 619 c 2
 372 621 l 2
 372 709 317 758 258 758 c 0
 194 758 130 720 130 619 c 2
 130 617 l 2xd8
256 35 m 2
 320 36 393 65 455 143 c 1
 385 209 302 290 219 375 c 1
 219 375 118 291 117 186 c 2
 117 183 l 2xe8
 117 124 145 35 252 35 c 2
 256 35 l 2
EndSplineSet
Validated: 1
EndChar

StartChar: quotesingle
Encoding: 39 39 8
Width: 190
GlyphClass: 2
Flags: MW
HStem: 691 109
VStem: 82 43<712.5 760.5>
LayerCount: 2
Fore
SplineSet
51 765 m 0
 50 765 50 766 50 766 c 1
 50 774 94 800 100 800 c 2
 101 800 l 1
 118 783 125 768 125 753 c 0
 125 727 101 705 76 691 c 1
 80 699 82 708 82 717 c 0
 82 734 74 751 51 765 c 0
EndSplineSet
Validated: 1
EndChar

StartChar: parenleft
Encoding: 40 40 9
Width: 486
GlyphClass: 2
Flags: MW
HStem: -9 21G 780 20G
VStem: 50 104<388 395 387 396 387 503.5>
LayerCount: 2
Fore
SplineSet
432 -9 m 1
 222 2 54 175 50 388 c 1
 50 396 l 2
 50 611 219 789 434 800 c 1
 304 756 227 674 188 575 c 0
 166 519 154 459 154 395 c 2
 154 387 l 2
 155 326 168 268 189 215 c 0
 229 116 322 1 432 -9 c 1
EndSplineSet
Validated: 1
EndChar

StartChar: parenright
Encoding: 41 41 10
Width: 493
GlyphClass: 2
Flags: MW
HStem: -9 21G 780 20G 780 20G
VStem: 328 104<388 394 394 396 388 426.5>
LayerCount: 2
Fore
SplineSet
49 -9 m 1xb0
 160 1 254 117 294 217 c 0
 315 270 327 327 328 387 c 2
 328 394 l 2
 328 459 315 519 293 575 c 0
 254 674 178 756 48 800 c 1
 263 789 432 611 432 396 c 2
 432 388 l 1
 428 175 259 2 49 -9 c 1xb0
EndSplineSet
Validated: 1
EndChar

StartChar: asterisk
Encoding: 42 42 11
Width: 274
GlyphClass: 2
Flags: MW
HStem: 630 144<130 146>
VStem: 130 16<639.5 640 640 688 716 763 763 763.5>
LayerCount: 2
Fore
SplineSet
211 733 m 1
 155 702 l 1
 211 671 l 2
 210 669 195 661 194 662 c 2
 146 688 l 1
 146 640 l 2
 146 639 132 630 130 630 c 1
 130 688 l 1
 83 662 l 2
 82 661 66 669 65 671 c 2
 122 702 l 1
 65 733 l 1
 66 734 82 742 83 742 c 2
 130 716 l 1
 130 763 l 2
 130 764 144 774 146 774 c 1
 146 716 l 1
 194 742 l 2
 195 742 210 734 211 733 c 1
EndSplineSet
Validated: 1
EndChar

StartChar: plus
Encoding: 43 43 12
Width: 508
GlyphClass: 2
Flags: MW
HStem: 368 48<86 90 90 229 276 419 419 420.5 60 276>
VStem: 229 47<223.5 225 225 368 416 554 554 558>
LayerCount: 2
Fore
SplineSet
419 416 m 2
 422 416 445 375 445 369 c 2
 445 368 l 1
 276 368 l 1
 276 225 l 2
 276 222 235 199 230 199 c 2
 229 199 l 1
 229 368 l 1
 90 368 l 2
 82 368 60 411 60 416 c 1
 229 416 l 1
 229 554 l 2
 229 562 271 584 276 584 c 1
 276 416 l 1
 419 416 l 2
EndSplineSet
Validated: 1
EndChar

StartChar: comma
Encoding: 44 44 13
Width: 228
GlyphClass: 2
Flags: MW
HStem: -62 109
VStem: 106 43<-40.5 7.5>
LayerCount: 2
Fore
SplineSet
75 12 m 0
 74 12 74 13 74 13 c 1
 74 21 118 47 124 47 c 2
 125 47 l 1
 142 30 149 15 149 0 c 0
 149 -26 125 -48 100 -62 c 1
 104 -54 106 -45 106 -36 c 0
 106 -19 98 -2 75 12 c 0
EndSplineSet
Validated: 1
EndChar

StartChar: hyphen
Encoding: 45 45 14
Width: 574
GlyphClass: 2
Flags: MW
HStem: 369 48<109 113 113 442 442 443.5 82 468>
LayerCount: 2
Fore
SplineSet
468 369 m 1
 113 369 l 2
 105 369 82 412 82 417 c 1
 442 417 l 2
 445 417 468 376 468 370 c 2
 468 369 l 1
EndSplineSet
Validated: 1
EndChar

StartChar: period
Encoding: 46 46 15
Width: 180
GlyphClass: 2
Flags: MW
HStem: -10 85<89 93.5>
VStem: 44 98<25.5 43.5>
LayerCount: 2
Fore
SplineSet
44 41 m 0
 44 46 80 63 91 75 c 0
 96 75 121 42 142 27 c 0
 142 24 109 11 89 -10 c 1
 89 -10 44 24 44 41 c 0
EndSplineSet
Validated: 1
EndChar

StartChar: slash
Encoding: 47 47 16
Width: 361
GlyphClass: 2
Flags: MW
VStem: 37 293
LayerCount: 2
Fore
SplineSet
262 672 m 2
 265 675 323 719 330 719 c 1
 330 719 161 256 104 98 c 0
 100 86 53 55 37 53 c 1
 262 672 l 2
EndSplineSet
Validated: 1
EndChar

StartChar: zero
Encoding: 48 48 17
Width: 868
GlyphClass: 2
Flags: MW
HStem: 1 46<398 431> 740 47<414.5 459>
VStem: 37 96<413.5 445.5 413.5 483.5> 726 94<343.5 374>
LayerCount: 2
Fore
SplineSet
141 515 m 0
 136 490 133 461 133 430 c 0
 133 397 137 362 144 330 c 0
 156 273 186 209 209 173 c 0
 256 100 349 47 447 47 c 0
 466 47 485 49 504 53 c 0
 620 78 705 177 721 283 c 0
 724 303 726 329 726 358 c 0
 726 390 723 424 717 454 c 0
 704 516 679 580 644 625 c 0
 592 692 505 740 413 740 c 0
 394 740 375 738 356 734 c 0
 244 709 161 614 141 515 c 0
45 311 m 0
 40 337 37 362 37 387 c 0
 37 580 186 743 344 778 c 0
 372 784 401 787 428 787 c 0
 609 787 771 663 811 479 c 0
 817 451 820 422 820 395 c 0
 820 214 696 52 512 12 c 0
 479 5 447 1 415 1 c 0
 240 1 86 108 45 311 c 0
EndSplineSet
Validated: 1
EndChar

StartChar: one
Encoding: 49 49 18
Width: 306
GlyphClass: 2
Flags: MW
VStem: 104 94<394 480 480 492 312 529.5>
LayerCount: 2
Fore
SplineSet
209 60 m 0
 213 19 256 1 256 1 c 1
 46 1 l 1
 46 1 91 32 94 66 c 0
 98 129 104 237 104 394 c 2
 104 480 l 2
 104 579 103 668 98 719 c 1
 90 755 40 760 40 760 c 1
 215 787 l 1
 215 787 198 590 198 394 c 0
 198 230 204 121 209 60 c 0
EndSplineSet
Validated: 1
EndChar

StartChar: two
Encoding: 50 50 19
Width: 669
GlyphClass: 2
Flags: MW
HStem: 1 60<211 434> 728 60<280 282>
VStem: 447 91<530 571.5>
LayerCount: 2
Fore
SplineSet
595 216 m 1
 595 216 595 129 602 79 c 0
 607 39 619 -10 619 -10 c 1
 619 -10 537 1 434 1 c 2
 74 1 l 1
 74 1 326 295 403 407 c 0
 432 450 447 499 447 545 c 0
 447 598 428 647 388 680 c 0
 351 711 305 728 259 728 c 0
 199 728 138 700 89 642 c 0
 68 617 51 589 40 561 c 1
 47 624 73 686 130 728 c 0
 183 768 249 788 311 788 c 0
 383 788 451 761 492 706 c 0
 523 665 538 614 538 561 c 0
 538 499 516 434 474 383 c 2
 211 61 l 1
 437 61 l 2
 554 61 595 216 595 216 c 1
EndSplineSet
Validated: 1
EndChar

StartChar: three
Encoding: 51 51 20
Width: 622
GlyphClass: 2
Flags: MW
HStem: 1 35<251 290 251 283> 468 21 726 62<176 182>
VStem: 456 95<186 310>
LayerCount: 2
Fore
SplineSet
291 489 m 1
 430 483 551 376 551 245 c 0
 551 110 434 1 290 1 c 2
 283 1 l 1
 283 1 72 3 72 103 c 1
 73 103 145 36 251 36 c 2
 257 36 l 2
 381 39 456 124 456 248 c 0
 456 372 377 468 253 468 c 2
 215 468 l 1
 215 468 313 625 374 727 c 1
 176 726 l 2
 90 722 75 647 75 647 c 1
 75 647 75 683 71 722 c 0
 66 772 53 795 53 795 c 1
 53 795 104 790 182 788 c 2
 436 787 l 1
 472 788 l 1
 291 489 l 1
EndSplineSet
Validated: 1
EndChar

StartChar: four
Encoding: 52 52 21
Width: 672
GlyphClass: 2
Flags: MW
HStem: 280 31<457 520>
VStem: 368 89
LayerCount: 2
Fore
SplineSet
152 312 m 1
 364 311 l 1
 364 333 368 509 368 568 c 2
 368 582 l 1
 335 538 185 350 152 312 c 1
457 311 m 1
 585 311 l 1
 585 311 555 280 520 280 c 2
 457 280 l 1
 458 173 463 99 467 54 c 0
 471 22 513 1 513 1 c 1
 306 1 l 1
 306 1 350 15 354 55 c 0
 357 100 361 175 363 281 c 1
 323 281 47 280 47 280 c 1
 47 280 192 440 257 520 c 0
 316 593 469 799 471 799 c 1
 471 799 457 693 457 395 c 2
 457 311 l 1
EndSplineSet
Validated: 1
EndChar

StartChar: five
Encoding: 53 53 22
Width: 646
GlyphClass: 2
Flags: MW
HStem: 1 35<256 295 256 285> 460 36<209 367 255 367> 727 60
VStem: 117 45 462 94<185 274>
LayerCount: 2
Fore
SplineSet
295 496 m 0
 439 496 556 384 556 249 c 0
 556 103 439 1 295 1 c 2
 285 1 l 1
 285 1 77 4 77 102 c 1
 79 102 152 36 256 36 c 2
 263 36 l 2
 387 39 462 123 462 247 c 0
 462 301 447 350 420 388 c 0
 385 432 331 458 263 460 c 2
 255 460 l 2
 163 460 99 412 78 394 c 1
 80 405 98 498 109 616 c 0
 116 690 115 693 117 746 c 2
 117 753 l 2
 117 778 112 787 112 787 c 1
 405 788 l 2
 478 790 524 795 524 795 c 1
 524 795 511 772 506 722 c 0
 502 683 502 647 502 647 c 1
 502 647 465 726 392 727 c 2
 186 727 l 1
 179 699 172 661 168 613 c 0
 164 566 162 534 162 512 c 0
 162 479 165 470 166 469 c 0
 214 494 255 496 295 496 c 0
EndSplineSet
Validated: 1
EndChar

StartChar: six
Encoding: 54 54 23
Width: 623
GlyphClass: 2
Flags: MW
HStem: 1 31<283 296> 511 33<298 325.5> 767 21<333 364.5 288.5 390>
VStem: 40 87<262.5 316 259.5 362> 493 80<231 253.5>
LayerCount: 2
Fore
SplineSet
274 542 m 0
 284 543 293 544 303 544 c 0
 438 544 555 441 571 303 c 0
 572 292 573 282 573 272 c 0
 573 136 473 19 336 4 c 0
 320 2 304 1 288 1 c 0
 273 1 259 2 246 6 c 0
 123 38 40 178 40 347 c 0
 40 377 43 408 48 439 c 0
 81 638 218 788 359 788 c 0
 370 788 381 787 392 785 c 0
 412 782 443 775 464 746 c 1
 440 757 422 763 412 765 c 0
 403 767 394 767 386 767 c 0
 280 767 194 657 153 497 c 1
 188 521 229 537 274 542 c 0
480 164 m 0
 490 187 493 217 493 245 c 0
 493 262 492 279 490 294 c 0
 485 340 476 386 450 420 c 0
 418 461 362 511 289 511 c 0
 283 511 277 511 271 510 c 0
 196 502 146 459 134 388 c 0
 129 359 127 330 127 302 c 0
 127 217 148 143 184 93 c 0
 215 51 259 32 307 32 c 0
 314 32 321 32 328 33 c 0
 414 43 458 111 480 164 c 0
EndSplineSet
Validated: 1
EndChar

StartChar: seven
Encoding: 55 55 24
Width: 509
GlyphClass: 2
Flags: MW
HStem: 729 59<132.5 173 168 173 173 173 173 374>
LayerCount: 2
Fore
SplineSet
40 795 m 1
 40 795 93 789 173 788 c 2
 459 787 l 1
 459 787 234 83 223 53 c 0
 200 -12 142 -18 142 -18 c 1
 142 -18 157 20 170 62 c 0
 182 100 365 694 374 729 c 1
 169 729 l 1
 168 729 l 2
 97 729 61 652 61 652 c 1
 61 652 61 687 57 725 c 0
 52 773 40 795 40 795 c 1
EndSplineSet
Validated: 1
EndChar

StartChar: eight
Encoding: 56 56 25
Width: 519
GlyphClass: 2
Flags: MW
HStem: 1 37<251 255 251 307.5> 754 33<255 257 257 285>
VStem: 40 59<149 231 149 237> 60 67<566.5 656 566.5 671.5> 384 59<569.5 663> 401 68<152.5 236>
LayerCount: 2
Fore
SplineSet
255 38 m 2xe4
 370 40 401 124 401 181 c 0
 401 291 274 351 232 384 c 1
 232 384 99 277 99 185 c 0
 99 113 142 38 251 38 c 2
 255 38 l 2xe4
127 605 m 0xd8
 127 528 269 449 269 449 c 1
 269 449 384 532 384 607 c 0
 384 719 315 754 255 754 c 0
 191 754 127 707 127 605 c 0xd8
315 421 m 1
 315 421 469 321 469 185 c 0
 469 53 360 1 255 1 c 0
 151 1 40 54 40 182 c 0xe4
 40 292 153 382 191 403 c 1
 191 403 60 484 60 606 c 0
 60 737 185 786 255 787 c 2
 257 787 l 2
 331 787 443 730 443 607 c 0
 443 516 340 441 315 421 c 1
EndSplineSet
Validated: 1
EndChar

StartChar: nine
Encoding: 57 57 26
Width: 614
GlyphClass: 2
Flags: MW
HStem: 0 21<248.5 279 222 324.5> 245 33<287 314> 757 30<302.5 319 301 330>
VStem: 39 80<532.5 555 532.5 586> 487 87<473 529 431 529.5>
LayerCount: 2
Fore
SplineSet
133 625 m 0
 123 601 119 570 119 540 c 0
 119 525 120 509 122 495 c 0
 127 449 137 404 163 369 c 0
 194 327 250 278 324 278 c 0
 330 278 336 278 342 279 c 0
 417 287 468 330 480 401 c 0
 485 430 487 459 487 487 c 0
 487 572 466 647 429 697 c 0
 398 739 354 757 306 757 c 0
 299 757 292 757 285 756 c 0
 199 746 155 678 133 625 c 0
339 247 m 0
 329 246 319 245 309 245 c 0
 174 245 57 347 41 486 c 0
 40 497 39 507 39 518 c 0
 39 654 140 771 277 786 c 0
 286 787 296 787 306 787 c 0
 332 787 360 784 379 778 c 0
 497 739 574 611 574 447 c 0
 574 415 571 383 565 349 c 0
 531 149 395 0 254 0 c 0
 243 0 232 1 221 3 c 0
 201 6 176 14 148 42 c 1
 172 31 190 25 200 23 c 0
 209 21 218 21 226 21 c 0
 332 21 419 132 460 292 c 1
 425 268 384 252 339 247 c 0
EndSplineSet
Validated: 1
EndChar

StartChar: colon
Encoding: 58 58 27
Width: 206
GlyphClass: 2
Flags: MW
VStem: 49 98<15.5 33.5>
LayerCount: 2
Fore
SplineSet
49 31 m 0
 49 36 85 53 96 65 c 0
 101 65 126 32 147 17 c 0
 147 14 114 1 94 -20 c 1
 94 -20 49 14 49 31 c 0
49 370 m 0
 49 375 85 392 96 404 c 0
 101 404 126 371 147 356 c 0
 147 353 114 340 94 319 c 1
 94 319 49 353 49 370 c 0
EndSplineSet
Validated: 1
EndChar

StartChar: semicolon
Encoding: 59 59 28
Width: 196
GlyphClass: 2
Flags: MW
VStem: 85 43<-48.5 -0.5>
LayerCount: 2
Fore
SplineSet
54 4 m 0
 53 4 53 5 53 5 c 1
 53 13 97 39 103 39 c 2
 104 39 l 1
 121 22 128 7 128 -8 c 0
 128 -34 104 -56 79 -70 c 1
 83 -62 85 -53 85 -44 c 0
 85 -27 77 -10 54 4 c 0
103 369 m 2
 105 369 111 363 119 354 c 0
 129 343 141 329 153 321 c 0
 154 320 149 318 144 315 c 0
 133 309 113 298 99 284 c 0
 98 284 94 289 90 295 c 0
 81 307 66 326 54 334 c 0
 51 336 64 343 73 349 c 0
 84 356 96 363 102 369 c 1
 103 369 l 2
EndSplineSet
Validated: 1
EndChar

StartChar: less
Encoding: 60 60 29
Width: 388
GlyphClass: 2
Flags: MW
HStem: 261 272<295.5 299.5>
VStem: 54 272<394 516>
LayerCount: 2
Fore
SplineSet
326 516 m 1
 115 394 l 1
 325 279 l 1
 325 279 304 261 295 261 c 0
 294 261 294 262 293 262 c 0
 231 296 54 394 54 394 c 1
 55 395 234 498 294 532 c 0
 295 532 295 533 296 533 c 0
 305 533 326 516 326 516 c 1
EndSplineSet
Validated: 1
EndChar

StartChar: equal
Encoding: 61 61 30
Width: 495
GlyphClass: 2
Flags: MW
HStem: 331 48<76 80 80 409 409 410.5 50 435> 447 48<76 80 80 409 409 410.5 50 435>
LayerCount: 2
Fore
SplineSet
435 447 m 1
 80 447 l 2
 72 447 50 490 50 495 c 1
 409 495 l 2
 412 495 435 454 435 448 c 2
 435 447 l 1
435 331 m 1
 80 331 l 2
 72 331 50 374 50 379 c 1
 409 379 l 2
 412 379 435 338 435 332 c 2
 435 331 l 1
EndSplineSet
Validated: 1
EndChar

StartChar: greater
Encoding: 62 62 31
Width: 405
GlyphClass: 2
Flags: MW
HStem: 261 272<90.5 94.5 89.5 95.5>
VStem: 64 272<394 516>
LayerCount: 2
Fore
SplineSet
64 516 m 1
 64 516 85 533 94 533 c 0
 95 533 95 532 96 532 c 0
 156 498 335 395 336 394 c 1
 336 394 159 296 97 262 c 0
 96 262 96 261 95 261 c 0
 86 261 65 279 65 279 c 1
 275 394 l 1
 64 516 l 1
EndSplineSet
Validated: 1
EndChar

StartChar: question
Encoding: 63 63 32
Width: 448
GlyphClass: 2
Flags: MW
HStem: -13 21G<187 187> 739 52<185 226 185 227.5>
VStem: 137 61<200.5 220 183.5 249> 324 63<597.5 638 592 653.5>
LayerCount: 2
Fore
SplineSet
142 38 m 0
 142 43 178 60 189 72 c 0
 194 72 219 39 240 24 c 0
 240 21 207 8 187 -13 c 1
 187 -13 142 21 142 38 c 0
324 619 m 0
 324 688 262 739 193 739 c 0
 157 739 119 726 87 693 c 0
 66 672 53 646 43 621 c 1
 44 679 67 724 116 764 c 0
 139 783 169 791 201 791 c 0
 251 791 306 770 338 734 c 0
 371 697 387 659 387 617 c 0
 387 567 364 510 315 439 c 0
 278 386 227 312 217 291 c 0
 203 261 198 232 198 208 c 0
 198 159 217 127 217 127 c 1
 217 127 137 161 137 240 c 0
 137 258 142 279 152 302 c 0
 173 350 223 406 272 481 c 0
 303 528 324 576 324 619 c 0
EndSplineSet
Validated: 1
EndChar

StartChar: at
Encoding: 64 64 33
Width: 626
GlyphClass: 2
Flags: MW
HStem: -4.14824 16.5042 65.122 14.611 262 13 504.935 15.5242
VStem: 37.8823 48.0493 525.529 42.7571
LayerCount: 2
Fore
SplineSet
301 399 m 1
 266 275 l 1
 333 275 l 1
 319 336 308 377 301 399 c 1
401 505 m 0
 505.181640625 464.399414062 568.283203125 365.703125 568.283203125 260.608398438 c 0
 568.283203125 228.510742188 562.397460938 195.81640625 549.998046875 163.998046875 c 0
 509.309570312 59.5908203125 410.274414062 -4.150390625 304.924804688 -4.150390625 c 0
 273.046875 -4.150390625 240.590820312 1.685546875 208.998046875 13.9970703125 c 0
 194.998046875 19.9970703125 167.998046875 31.9970703125 143.998046875 50.9970703125 c 1
 143.998046875 50.9970703125 207.998046875 27.9970703125 213.998046875 25.9970703125 c 0
 237.681640625 16.703125 262.353515625 12.3525390625 286.694335938 12.3525390625 c 0
 343.544921875 12.3525390625 398.586914062 36.0849609375 434.998046875 75.9970703125 c 0
 455.998046875 98.9970703125 484.998046875 140.997070312 500.998046875 179.997070312 c 0
 515.981445312 217.014648438 525.52734375 258.693359375 525.52734375 296.131835938 c 0
 525.52734375 301.170898438 525.354492188 306.133789062 524.999023438 310.998046875 c 0
 519.999023438 384.998046875 473.999023438 461.998046875 396.999023438 491.998046875 c 0
 374.22265625 500.872070312 350.484375 504.93359375 327.025390625 504.93359375 c 0
 271.176757812 504.93359375 216.9140625 481.913085938 181 445.999023438 c 0
 154 418.999023438 126 376.999023438 109 334.999023438 c 0
 94 295.999023438 87 245.999023438 86 214.999023438 c 0
 85.9541015625 213.447265625 85.931640625 211.891601562 85.931640625 210.33203125 c 0
 85.931640625 177.721679688 95.8671875 143.5390625 114 113 c 0
 122.458007812 100.782226562 138.865234375 79.732421875 159.901367188 79.732421875 c 0
 161.249023438 79.732421875 162.615234375 79.818359375 164 79.9990234375 c 0
 187 82.9990234375 199 103.999023438 212 141.999023438 c 0
 227 185.999023438 233 209.999023438 250 267.999023438 c 0
 276 358.999023438 285 402.999023438 285 405.999023438 c 0
 285 412.999023438 272 418.999023438 272 418.999023438 c 1
 360 418.999023438 l 1
 360 418.999023438 343 413.999023438 345 397.999023438 c 0
 348 374.999023438 356 332.999023438 371 267.999023438 c 0
 385 207.999023438 397 162.999023438 404 138.999023438 c 0
 409 123.999023438 422 117.999023438 422 117.999023438 c 1
 341 117.999023438 l 1
 341 117.999023438 362 126.999023438 360 139.999023438 c 0
 356 163.999023438 348 206.999023438 336 261.999023438 c 1
 262 261.999023438 l 1
 262 261.999023438 237 174.999023438 228 145.999023438 c 0
 216 106.999023438 196 71.9990234375 164 65.9990234375 c 0
 160.811523438 65.4013671875 157.642578125 65.12109375 154.505859375 65.12109375 c 0
 126.161132812 65.12109375 100.40625 87.9921875 86.0009765625 105.999023438 c 0
 55.3779296875 146.421875 37.8837890625 195.47265625 37.8837890625 249.245117188 c 0
 37.8837890625 283.26953125 44.8876953125 319.18359375 60.0009765625 355.999023438 c 0
 104.409179688 465.489257812 213.890625 520.458984375 313.93359375 520.458984375 c 0
 344.551757812 520.458984375 374.286132812 515.310546875 401 505 c 0
EndSplineSet
Validated: 524289
EndChar

StartChar: bracketleft
Encoding: 91 91 34
Width: 436
GlyphClass: 2
Flags: MW
HStem: 47 42 701 42<114 149.5>
VStem: 72 44<47 108.5>
LayerCount: 2
Fore
SplineSet
114 701 m 1
 115 564 116 128 116 89 c 1
 372 88 l 1
 365 75 334 48 314 46 c 2
 314 46 73 47 72 47 c 2
 69 707 l 1
 113 743 l 1
 373 743 l 1
 366 730 335 702 315 700 c 2
 315 700 185 701 114 701 c 1
EndSplineSet
Validated: 1
EndChar

StartChar: backslash
Encoding: 92 92 35
Width: 444
GlyphClass: 2
Flags: MW
VStem: 59 293
LayerCount: 2
Fore
SplineSet
127 679 m 2
 352 60 l 1
 336 62 288 93 284 105 c 0
 227 263 59 726 59 726 c 1
 66 726 124 682 127 679 c 2
EndSplineSet
Validated: 1
EndChar

StartChar: bracketright
Encoding: 93 93 36
Width: 458
GlyphClass: 2
Flags: MW
HStem: 46 42 700 43<127 127>
VStem: 326 44<46 108.5>
LayerCount: 2
Fore
SplineSet
329 701 m 1
 258 701 127 700 127 700 c 2
 107 702 76 730 69 743 c 1
 329 743 l 1
 373 707 l 1
 370 46 l 1
 128 46 l 2
 108 48 77 75 70 88 c 1
 326 89 l 1
 326 128 328 564 329 701 c 1
EndSplineSet
Validated: 1
EndChar

StartChar: asciicircum
Encoding: 94 94 37
Width: 256
GlyphClass: 2
Flags: MW
HStem: 649 146<122 184>
VStem: 51 142<665.5 666>
LayerCount: 2
Fore
SplineSet
193 666 m 2
 194 665 186 650 184 649 c 2
 122 762 l 1
 60 648 l 2
 58 649 51 665 51 666 c 2
 122 795 l 1
 193 666 l 2
EndSplineSet
Validated: 1
EndChar

StartChar: underscore
Encoding: 95 95 38
Width: 734
GlyphClass: 2
Flags: MW
HStem: 0 49<169 538>
LayerCount: 2
Fore
SplineSet
169 49 m 2
 604 49 l 1
 597 35 560 3 538 0 c 2
 101 0 l 1
 103 6 165 48 169 49 c 2
EndSplineSet
Validated: 1
EndChar

StartChar: grave
Encoding: 96 96 39
Width: 201
GlyphClass: 2
Flags: MW
HStem: 820 109
VStem: 91 43<841.5 889.5>
LayerCount: 2
Fore
SplineSet
60 894 m 0
 59 894 59 895 59 895 c 1
 59 903 103 929 109 929 c 2
 110 929 l 1
 127 912 134 897 134 882 c 0
 134 856 110 834 85 820 c 1
 89 828 91 837 91 846 c 0
 91 863 83 880 60 894 c 0
EndSplineSet
Validated: 1
EndChar

StartChar: braceleft
Encoding: 123 123 40
Width: 412
GlyphClass: 2
Flags: MW
HStem: 179 24<278.5 285> 587 24<282 288.5 266.5 310.5>
VStem: 155 28<275.5 291 291 302 302 303 275.5 329.5>
LayerCount: 2
Fore
SplineSet
156 491 m 0
 156 547 156 556 181 583 c 0
 204 607 252 611 281 611 c 0
 296 611 306 610 306 610 c 2
 318 609 338 592 342 584 c 1
 342 584 323 587 298 587 c 0
 266 587 227 582 207 561 c 0
 188 540 183 528 183 497 c 2
 183 487 l 1
 183 486 l 2
 183 429 91 395 88 394 c 1
 97 391 183 358 183 303 c 2
 183 302 l 1
 183 291 l 2
 183 260 187 249 206 228 c 0
 225 207 263 203 294 203 c 0
 320 203 341 206 341 206 c 1
 337 198 317 181 305 180 c 2
 305 180 293 179 277 179 c 0
 247 179 202 183 180 206 c 0
 155 233 155 242 155 298 c 0
 155 361 70 391 60 394 c 1
 60 394 156 428 156 491 c 0
EndSplineSet
Validated: 1
EndChar

StartChar: bar
Encoding: 124 124 41
Width: 228
GlyphClass: 2
Flags: MW
VStem: 91 51<50 177>
LayerCount: 2
Fore
SplineSet
92 686 m 2
 93 689 136 734 143 734 c 1
 143 734 142 258 142 96 c 0
 142 83 106 52 91 50 c 1
 92 686 l 2
EndSplineSet
Validated: 1
EndChar

StartChar: braceright
Encoding: 125 125 42
Width: 392
GlyphClass: 2
Flags: MW
HStem: 179 24<111 117.5 89 134> 587 24<107.5 114>
VStem: 213 28<291 302 302 303 303 329.5 270 330.5>
LayerCount: 2
Fore
SplineSet
240 491 m 0
 240 429 336 394 336 394 c 1
 326 391 241 361 241 298 c 0
 241 242 241 233 216 206 c 0
 194 183 149 179 119 179 c 0
 103 179 91 180 91 180 c 2
 78 181 59 198 55 206 c 1
 55 206 76 203 102 203 c 0
 133 203 171 207 190 228 c 0
 209 249 213 260 213 291 c 2
 213 302 l 1
 213 303 l 2
 213 358 299 391 308 394 c 1
 305 395 213 429 213 486 c 2
 213 487 l 2
 213 526 210 539 189 561 c 0
 169 582 130 587 98 587 c 0
 73 587 54 584 54 584 c 1
 58 591 78 608 90 610 c 2
 90 610 100 611 115 611 c 0
 144 611 192 607 215 583 c 0
 240 556 240 547 240 491 c 0
EndSplineSet
Validated: 1
EndChar

StartChar: asciitilde
Encoding: 126 126 43
Width: 522
GlyphClass: 2
Flags: MW
HStem: 372 32<368.5 375> 377 37<213 227 205.5 234> 388 35<134 141>
LayerCount: 2
Fore
SplineSet
111 417 m 0x20
 120 422 129 423 139 423 c 0x20
 162 423 189 414 222 414 c 0x40
 232 414 243 414 255 417 c 0
 262 419 270 419 277 419 c 0
 311 419 346 404 391 404 c 0
 412 404 435 408 461 417 c 1
 455 405 428 387 408 379 c 0
 394 374 381 372 369 372 c 0x80
 340 372 313 381 281 381 c 0
 272 381 263 381 254 379 c 0
 246 378 238 377 230 377 c 0x40
 196 377 162 388 120 388 c 0
 100 388 79 386 56 379 c 1
 58 384 108 416 111 417 c 0x20
EndSplineSet
Validated: 1
EndChar

StartChar: uni0401
Encoding: 1025 1025 44
Width: 645
GlyphClass: 2
Flags: MW
HStem: -11 21G<605 605> 2 31<204 422 204 428> 378 34<191 343 191 191> 754 34<204 421 204 204> 781 20G<605 605> 781 20G<605 605>
VStem: 97 94<378 378 378 412 378 484>
LayerCount: 2
Fore
SplineSet
86 38 m 0x62
 91 87 97 200 97 397 c 0
 97 571 89 698 85 754 c 0
 82 772 50 788 50 788 c 1
 428 788 l 2x72
 531 788 605 801 605 801 c 1x2a
 605 801 593 751 587 711 c 0
 580 661 580 572 580 572 c 1
 580 572 539 754 421 754 c 2
 204 754 l 1
 200 698 192 576 191 412 c 1
 342 413 l 2
 426 415 446 467 446 467 c 1
 446 323 l 1
 446 323 424 375 343 378 c 2
 191 378 l 1
 192 193 200 81 204 33 c 1
 422 33 l 2x72
 539 34 580 217 580 217 c 1
 580 217 580 129 587 79 c 0
 593 38 605 -11 605 -11 c 1xa2
 605 -11 531 2 428 2 c 2
 50 2 l 1
 50 2 83 20 86 38 c 0x62
304 865 m 0
 304 862 271 849 251 828 c 1
 251 828 206 862 206 879 c 0
 206 884 242 901 253 913 c 0
 258 913 283 880 304 865 c 0
449 861 m 0
 449 858 416 845 396 824 c 1
 396 824 351 858 351 875 c 0
 351 880 387 897 398 909 c 0
 403 909 428 876 449 861 c 0
EndSplineSet
Validated: 1
EndChar

StartChar: afii10017
Encoding: 1040 1040 45
Width: 710
GlyphClass: 2
Flags: MW
HStem: 378 33<263 439 263 447 253 439>
LayerCount: 2
Fore
SplineSet
263 411 m 1
 439 411 l 1
 402 571 371 679 354 736 c 1
 263 411 l 1
50 1 m 1
 50 1 102 26 116 63 c 0
 187 254 253 488 314 753 c 1
 314 755 l 2
 314 771 278 787 278 787 c 1
 510 787 l 1
 510 787 470 776 470 741 c 0
 470 739 471 737 471 734 c 0
 480 675 498 564 537 394 c 0
 572 238 606 120 625 56 c 0
 637 16 670 1 670 1 c 1
 459 1 l 1
 459 1 508 24 508 56 c 0
 508 120 479 233 447 378 c 1
 253 378 l 1
 164 59 l 2
 163 56 163 52 163 49 c 0
 163 16 212 1 212 1 c 1
 50 1 l 1
EndSplineSet
Validated: 1
EndChar

StartChar: afii10018
Encoding: 1041 1041 46
Width: 649
GlyphClass: 2
Flags: MW
HStem: 0 33<341 401> 375 41<192 192> 382 33 753 34<205 375 205 205>
VStem: 98 94<299 375 289.5 416 289.5 481> 526 83<163.5 252.5>
LayerCount: 2
Fore
SplineSet
368 381 m 0xdc
 360 381 351 382 341 382 c 0xbc
 297 382 239 378 192 375 c 1
 192 204 199 95 203 41 c 1
 256 37 319 33 363 33 c 0
 452 33 526 119 526 208 c 0
 526 297 457 377 368 381 c 0xdc
85 754 m 0
 82 775 50 787 50 787 c 1
 382 787 l 2
 486 789 558 796 558 796 c 1
 558 796 546 746 541 706 c 0
 534 656 534 568 534 568 c 1
 534 568 493 753 375 753 c 2
 205 753 l 1
 201 700 193 580 192 416 c 1xdc
 401 415 l 2
 516 415 609 323 609 208 c 0
 609 93 516 0 401 0 c 2
 50 0 l 1
 51 1 82 12 85 35 c 0
 92 80 98 206 98 392 c 0
 98 570 89 699 85 754 c 0
EndSplineSet
Validated: 1
EndChar

StartChar: afii10019
Encoding: 1042 1042 47
Width: 650
GlyphClass: 2
Flags: MW
HStem: 1 32<342 402> 383 35<192 203.5> 755 34<266 373.5>
VStem: 98 94<298.5 383 295 418 295 487> 439 80<550.5 630> 527 83<163.5 252.5>
LayerCount: 2
Fore
SplineSet
87 753 m 0
 84 769 50 787 50 787 c 1
 123 787 l 1
 318 789 l 2
 429 789 519 698 519 587 c 0
 519 514 480 450 421 415 c 1
 527 405 610 316 610 208 c 0
 610 93 517 1 402 1 c 2
 51 1 l 1
 51 1 84 19 86 36 c 0
 91 89 98 204 98 393 c 0
 98 581 96 702 87 753 c 0
527 208 m 0
 527 297 457 378 368 382 c 0
 341 383 304 384 267 384 c 0
 241 384 215 383 192 383 c 1
 192 207 199 96 204 42 c 1
 257 38 320 33 364 33 c 0
 453 33 527 119 527 208 c 0
287 755 m 1
 266 755 l 2
 246 755 225 754 205 753 c 1
 201 699 193 580 192 418 c 1
 282 418 l 2
 368 418 439 501 439 587 c 0
 439 673 372 751 287 755 c 1
EndSplineSet
Validated: 1
EndChar

StartChar: afii10020
Encoding: 1043 1043 48
Width: 655
GlyphClass: 2
Flags: MW
HStem: 754 33<215 432 215 215>
VStem: 108 94<316 394 394 483.5>
LayerCount: 2
Fore
SplineSet
98 61 m 0
 103 122 108 231 108 394 c 0
 108 573 108 686 97 749 c 0
 93 773 62 787 62 787 c 1
 471 787 l 2
 557 789 615 797 615 797 c 1
 615 797 603 766 598 716 c 0
 592 660 591 569 591 569 c 1
 591 569 550 754 432 754 c 2
 215 754 l 1
 203 727 202 619 202 495 c 2
 202 394 l 2
 202 238 209 123 213 61 c 0
 216 27 260 1 260 1 c 1
 50 1 l 1
 50 1 94 20 98 61 c 0
EndSplineSet
Validated: 1
EndChar

StartChar: afii10021
Encoding: 1044 1044 49
Width: 778
GlyphClass: 2
Flags: MW
HStem: 1 31<194 533 194 194> 767 20G<298 530 530 530>
VStem: 126 52<32 32> 533 120<32 32>
LayerCount: 2
Fore
SplineSet
178 32 m 1
 533 32 l 1
 525 86 504 215 463 395 c 0
 425 562 393 674 375 734 c 1
 178 32 l 1
126 32 m 1
 144 81 191 212 246 401 c 0
 296 570 335 688 335 742 c 0
 335 761 310 781 298 787 c 1
 530 787 l 1
 530 787 490 777 490 742 c 0
 490 740 491 738 491 735 c 0
 500 676 518 565 557 395 c 0
 598 215 636 86 653 32 c 1
 738 32 l 1
 738 -191 l 1
 738 -191 697 -5 583 1 c 1
 194 1 l 1
 81 -5 40 -191 40 -191 c 1
 40 32 l 1
 126 32 l 1
EndSplineSet
Validated: 1
EndChar

StartChar: afii10022
Encoding: 1045 1045 50
Width: 645
GlyphClass: 2
Flags: MW
HStem: 1 31<204 422 204 428> 377 34<191 343 191 191> 754 33<204 421 204 204>
VStem: 97 94<377 377 377 411 377 483.5>
LayerCount: 2
Fore
SplineSet
86 37 m 0
 90 86 97 199 97 396 c 0
 97 571 89 697 84 754 c 0
 82 772 50 787 50 787 c 1
 428 787 l 2
 531 787 605 800 605 800 c 1
 605 800 593 751 587 711 c 0
 581 660 580 572 580 572 c 1
 580 572 539 754 421 754 c 2
 204 754 l 1
 199 698 192 576 191 411 c 1
 342 412 l 2
 427 414 446 466 446 466 c 1
 446 322 l 1
 446 322 424 374 343 377 c 2
 191 377 l 1
 192 192 200 80 204 32 c 1
 422 32 l 2
 539 33 580 217 580 217 c 1
 580 217 581 128 587 78 c 0
 593 38 605 -12 605 -12 c 1
 605 -12 531 1 428 1 c 2
 50 1 l 1
 50 1 82 19 86 37 c 0
EndSplineSet
Validated: 1
EndChar

StartChar: afii10024
Encoding: 1046 1046 51
Width: 1172
GlyphClass: 2
Flags: MW
VStem: 541 94<348 350>
LayerCount: 2
Fore
SplineSet
155 75 m 2
 508 428 l 1
 221 717 l 2
 164 770 116 785 116 785 c 1
 283 786 l 1
 283 786 263 776 263 758 c 0
 263 751 266 744 273 735 c 2
 540 467 l 1
 538 585 534 675 530 729 c 0
 526 769 480 787 480 787 c 1
 690 787 l 1
 690 787 646 762 642 728 c 0
 636 678 635 580 635 473 c 1
 898 737 l 2
 905 746 908 753 908 760 c 0
 908 778 888 788 888 788 c 1
 1055 788 l 1
 1055 788 1007 772 950 719 c 2
 663 430 l 1
 1017 76 l 2
 1072 23 1132 1 1132 1 c 1
 899 1 l 1
 899 1 936 15 936 37 c 0
 936 43 933 50 926 57 c 2
 635 348 l 1
 636 217 641 125 645 69 c 0
 648 35 692 1 692 1 c 1
 483 1 l 1
 483 1 526 27 530 68 c 0
 534 123 540 212 541 350 c 1
 246 55 l 2
 238 47 236 40 236 34 c 0
 236 12 272 0 272 0 c 1
 40 0 l 1
 40 0 101 21 155 75 c 2
EndSplineSet
Validated: 1
EndChar

StartChar: afii10025
Encoding: 1047 1047 52
Width: 569
GlyphClass: 2
Flags: MW
HStem: 1 35<257 264 264 268> 468 17<223.5 225 225 232> 759 27<241 267 267 274.5>
VStem: 75 0<614 614 624 624> 348 76<598.5 657> 419 110<185.5 301 176.5 309>
LayerCount: 2
Fore
SplineSet
322 481 m 1xf8
 438 455 529 358 529 244 c 0
 529 109 412 1 268 1 c 2
 264 1 l 2
 250 1 50 3 50 103 c 0
 50 103.063476562 50.0341796875 103.094726562 50.1025390625 103.094726562 c 0
 53.2490234375 103.094726562 128.33984375 36.978515625 236 36 c 2
 238 36 l 2
 354 36 419 124 419 247 c 0xf4
 419 371 349 463 232 468 c 1
 225 468 l 2
 202 468 193 464 193 464 c 1
 193 464 189 488 189 490 c 1
 189 490 202 485 245 485 c 0
 310 485 348 571 348 626 c 0
 348 688 308 759 241 759 c 0
 109 756 89 660 75 614 c 1
 75 624 l 2
 75 647 74 703 69 742 c 0
 64 782 60 795 60 795 c 1
 60 795 81 772 115 772 c 0
 120 772 125 773 131 774 c 0
 161 780 196 784 219 786 c 2
 220 786 l 1
 232 786 l 1
 237 786 l 1
 238 786 l 1
 267 786 l 2
 353 786 424 713 424 627 c 0
 424 560 381 503 322 481 c 1xf8
EndSplineSet
Validated: 524289
EndChar

StartChar: afii10026
Encoding: 1048 1048 53
Width: 756
GlyphClass: 2
Flags: MW
HStem: 0 21G<218 218> 0 21G<218 218> 767 20G<51 259 259 259 549 716 716 716> 767 20G<51 259 259 259 549 716 716 716>
VStem: 108 94<325 473.5 325 474.5> 565 94<396 457 396 462.5>
LayerCount: 2
Fore
SplineSet
98 59 m 0xac
 103 119 108 229 108 396 c 0
 108 553 102 671 97 734 c 0
 94 776 51 787 51 787 c 1
 259 787 l 1
 259 787 216 767 214 734 c 1
 213 734 l 1
 208 670 202 551 202 396 c 0
 202 254 207 153 211 89 c 1
 252 158 311 266 378 404 c 0
 493.001953125 642.775390625 549.114257812 774.219726562 549.114257812 786.298828125 c 0
 549.114257812 786.614257812 549.076171875 786.84765625 549 787 c 1x9c
 716 787 l 1
 716 787 676 765 670 732 c 0
 664 700 659 587 659 457 c 2
 659 396 l 2
 661 230 669 59 669 59 c 2
 672 26 716 1 716 1 c 1
 507 1 l 1
 507 1 551 17 554 59 c 0
 559 119 565 229 565 396 c 0
 565 529 560 634 556 702 c 1
 218 1 l 1
 218 1 218 0 218 0 c 1
 218 0 50 1 50 1 c 1
 50 1 95 17 98 59 c 0xac
EndSplineSet
Validated: 524289
EndChar

StartChar: afii10027
Encoding: 1049 1049 54
Width: 757
GlyphClass: 2
Flags: MW
HStem: 0 21G<50 218 50 50> 0 21G<50 218 50 50> 767 20G<549 717 717 717> 828 27<366.5 397.5> 841 46
VStem: 108 94<326.001 475.501> 565 94<397 427 397 466>
LayerCount: 2
Fore
SplineSet
248 887 m 1x2e
 289 866 334 855 383 855 c 0
 431 855 477 867 517 888 c 1
 517 888 486 849 471 842 c 0
 450 833 413 828 382 828 c 0x36
 351 828 308 835 294 841 c 0
 279 848 248 887 248 887 c 1x2e
97 60 m 0
 102 120 108 230.000976562 108 397.000976562 c 0
 108 554.000976562 101 672.000976562 97 735.000976562 c 1
 97 736.000976562 l 2
 94 778.000976562 51 787.000976562 51 787.000976562 c 1
 93 787.000976562 l 1
 218 787.000976562 l 1
 261 787.000976562 l 1
 261 787.000976562 218 769.000976562 214 737.000976562 c 0
 209 674.000976562 202 555.000976562 202 397.000976562 c 0
 202 255.000976562 206 154.000976562 210 90.0009765625 c 1
 248 158.000976562 305 264.000976562 371 401.000976562 c 0
 488.110351562 642.109375 549.047851562 769.905273438 549.047851562 786.293945312 c 0
 549.047851562 786.55859375 549.032226562 786.793945312 549 787 c 1
 717 787 l 1
 717 787 673 769 670 736 c 0
 665 686 659 569 659 427 c 2
 659 397 l 2
 660 231 667 89 669 60 c 0
 671 27 717 1 717 1 c 1
 507 1 l 1
 507 1 551 18 554 60 c 0
 559 120 565 230 565 397 c 0
 565 535 559 642 555 709 c 1
 218 0 l 1
 50 0 l 1xa6
 50 0 94 18 97 60 c 0
EndSplineSet
Validated: 524289
EndChar

StartChar: afii10028
Encoding: 1050 1050 55
Width: 741
GlyphClass: 2
Flags: MW
VStem: 110 94<347 347 347 472>
LayerCount: 2
Fore
SplineSet
211 727 m 0
 205 677 204 580 204 473 c 1
 468 737 l 2
 475 746 478 754 478 760 c 0
 478 778 458 787 458 787 c 1
 625 787 l 1
 625 787 577 772 520 719 c 2
 232 430 l 1
 232 430 497 163 586 75 c 0
 641 21 701 1 701 1 c 1
 467 1 l 1
 467 1 505 14 505 36 c 0
 505 42 502 49 495 56 c 2
 204 347 l 1
 205 216 210 124 214 68 c 0
 217 34 264 1 264 1 c 1
 51 1 l 1
 51 1 96 21 100 62 c 0
 105 123 110 232 110 395 c 0
 110 549 104 665 99 729 c 0
 95 769 50 787 50 787 c 1
 260 787 l 1
 260 787 215 761 211 727 c 0
EndSplineSet
Validated: 1
EndChar

StartChar: afii10029
Encoding: 1051 1051 56
Width: 711
GlyphClass: 2
Flags: W
LayerCount: 2
Fore
SplineSet
625 57 m 0
 637 17 671 0 671 0 c 1
 460 0 l 1
 460 0 509 25 509 57 c 0
 509 124 479 242 444 395 c 0
 406 561 374 673 356 733 c 1
 166 58 l 2
 165 55 165 51 165 48 c 0
 165 15 213 0 213 0 c 1
 50 0 l 1
 50 0 107 31 118 63 c 0
 141 127 182 243 227 398 c 0
 279 578 317 700 317 746 c 0
 317 771 278 787 278 787 c 1
 511 787 l 1
 511 787 470 777 470 742 c 0
 470 740 471 738 471 735 c 0
 480 676 499 565 538 395 c 0
 573 239 606 121 625 57 c 0
EndSplineSet
Validated: 1
EndChar

StartChar: afii10030
Encoding: 1052 1052 57
Width: 1071
GlyphClass: 2
Flags: MW
HStem: 767 20G<268 500 500 500 638 871 871 871>
LayerCount: 2
Fore
SplineSet
527 395 m 0
 535 359 543 321 550 291 c 1
 560 322 570 356 580 391 c 0
 633 572 672 692 672 744 c 0
 672 765 646 784 638 787 c 1
 871 787 l 1
 871 787 830 776 830 741 c 0
 830 739 831 737 831 734 c 0
 840 675 858 564 897 394 c 0
 932 238 966 120 985 56 c 0
 997 16 1031 1 1031 1 c 1
 821 1 l 1
 821 1 868 23 868 55 c 0
 868 122 838 241 803 394 c 0
 764 564 732 678 714 737 c 1
 507 3 l 1
 506 3 l 1
 506 3 488 153 433 395 c 0
 395 564 363 677 345 736 c 1
 155 62 l 2
 154 58 154 55 154 52 c 0
 154 18 202 1 202 1 c 1
 40 1 l 1
 40 1 93 31 106 66 c 0
 128 128 170 247 217 408 c 0
 265 573 294 685 305 740 c 0
 305 742 306 743 306 745 c 0
 306 769 268 787 268 787 c 1
 500 787 l 1
 500 787 460 777 460 742 c 0
 460 740 461 738 461 735 c 0
 470 676 488 565 527 395 c 0
EndSplineSet
Validated: 1
EndChar

StartChar: afii10031
Encoding: 1053 1053 58
Width: 758
GlyphClass: 2
Flags: MW
HStem: 377 34<203 206 565.5 566> 767 20G<51 261 261 261 508 508>
VStem: 109 94<310.5 377 411 472.5> 566 93<298 529.5 458 485.5>
LayerCount: 2
Fore
SplineSet
98 57 m 0
 103 117 109 227 109 394 c 0
 109 551 103 670 98 733 c 0
 95 775 51 787 51 787 c 1
 261 787 l 1
 252 784 218 767 214 733 c 0
 206 664 203 558 203 411 c 1
 209 411 308 408 384 408 c 0
 459 408 563 411 566 411 c 1
 566 560 558 672 554 733 c 0
 551 775 508 787 508 787 c 1
 718 788 l 1
 712 783 674 756 671 733 c 0
 664 680 659 589 659 470 c 0
 659 446 660 420 660 394 c 0
 663 228 662 130 672 56 c 0
 676 23 718 0 718 0 c 1
 508 0 l 1
 508 0 552 15 555 57 c 0
 559 115 566 219 566 377 c 1
 565 377 453 380 383 380 c 0
 310 380 209 377 203 377 c 1
 203 221 215 58 215 58 c 2
 218 25 262 0 262 0 c 1
 50 0 l 1
 50 0 95 15 98 57 c 0
EndSplineSet
Validated: 1
EndChar

StartChar: afii10032
Encoding: 1054 1054 59
Width: 913
GlyphClass: 2
Flags: MW
HStem: -18 49<424 459> 767 50<440 488>
VStem: 40 102<422 456 422 494.5> 772 101<350 382>
LayerCount: 2
Fore
SplineSet
150 528 m 0
 145 502 142 472 142 440 c 0
 142 404 146 367 153 332 c 0
 166 271 199 203 223 165 c 0
 273 87 372 31 476 31 c 0
 496 31 516 33 536 37 c 0
 659 64 749 169 766 281 c 0
 770 303 772 334 772 366 c 0
 772 398 769 433 763 463 c 0
 749 529 722 596 685 644 c 0
 629 716 537 767 439 767 c 0
 419 767 399 765 379 761 c 0
 260 735 171 633 150 528 c 0
48 311 m 0
 42 338 40 366 40 392 c 0
 40 597 199 771 366 807 c 0
 396 814 425 817 455 817 c 0
 647 817 821 684 863 489 c 0
 870 459 873 429 873 400 c 0
 873 208 740 35 545 -7 c 0
 510 -15 476 -18 442 -18 c 0
 256 -18 92 95 48 311 c 0
EndSplineSet
Validated: 1
EndChar

StartChar: afii10033
Encoding: 1055 1055 60
Width: 757
GlyphClass: 2
Flags: MW
HStem: 754 33<348 420>
VStem: 108 94<368 394 394 394> 565 94<309.5 472 309.5 472.5>
LayerCount: 2
Fore
SplineSet
669 55 m 0
 673 23 717 1 717 1 c 1
 507 1 l 1
 507 1 548 13 554 51 c 0
 559 109 565 221 565 394 c 0
 565 551 556 709 551 745 c 1
 540 753 455 754 385 754 c 0
 311 754 228 754 216 746 c 1
 207 690 202 550 202 394 c 0
 202 225 208 115 213 55 c 0
 217 23 260 1 260 1 c 1
 50 1 l 1
 50 1 94 21 97 56 c 0
 100 89 108 213 108 368 c 2
 108 394 l 2
 107 551 102 670 97 733 c 0
 94 775 50 787 50 787 c 1
 717 787 l 1
 714 784 673 761 670 733 c 0
 664 669 659 550 659 394 c 0
 659 225 664 115 669 55 c 0
EndSplineSet
Validated: 1
EndChar

StartChar: afii10034
Encoding: 1056 1056 61
Width: 558
GlyphClass: 2
Flags: MW
HStem: 386 33<191 281> 755 34<263 372.5>
VStem: 97 94<299 346 346 386 263 419 263 488> 438 80<544.5 630>
LayerCount: 2
Fore
SplineSet
318 387 m 2
 191 386 l 1
 191 346 l 2
 191 180 197 75 204 32 c 0
 206 13 238 1 238 1 c 1
 50 1 l 1
 50 1 82 18 85 35 c 0
 89 87 97 204 97 394 c 0
 97 582 90 704 83 763 c 0
 81 776 50 787 50 787 c 1
 123 787 l 1
 317 789 l 2
 428 789 518 698 518 587 c 0
 518 477 429 387 318 387 c 2
286 755 m 1
 263 755 l 2
 244 755 223 755 204 754 c 1
 200 700 192 580 191 419 c 1
 281 419 l 2
 367 419 438 502 438 587 c 0
 438 673 371 751 286 755 c 1
EndSplineSet
Validated: 1
EndChar

StartChar: afii10035
Encoding: 1057 1057 62
Width: 780
GlyphClass: 2
Flags: MW
HStem: -17 48<422.5 472.5> 770 49<445 487.5 445 490.5> 777 20G<644 644>
VStem: 40 105<415.5 448 415.5 497>
LayerCount: 2
Fore
SplineSet
152 529 m 0xd0
 148 496 145 464 145 432 c 0
 145 399 148 367 155 333 c 0
 168 272 200 204 225 165 c 0
 279 82 372 31 473 31 c 0
 494 31 516 33 538 38 c 0
 629 58 701 117 740 194 c 1
 718 64 l 1
 713 66 703 63 695 57 c 0
 652 27 602 5 547 -7 c 0
 517 -13 487 -17 458 -17 c 0
 266 -17 93 117 50 312 c 0
 44 342 40 372 40 401 c 0
 40 593 174 766 369 809 c 0
 399 816 430 819 460 819 c 0xd0
 515 819 569 808 618 787 c 0
 622 785 641 789 644 797 c 1xb0
 680 655 l 1
 624 726 537 770 444 770 c 0
 423 770 402 768 381 763 c 0
 262 737 167 643 152 529 c 0xd0
EndSplineSet
Validated: 1
EndChar

StartChar: afii10036
Encoding: 1058 1058 63
Width: 774
GlyphClass: 2
Flags: MW
HStem: 756 34<217 325 216 557 445 550 445 445>
VStem: 338 95<345 440 394 440>
LayerCount: 2
Fore
SplineSet
557 790 m 2
 661 790 734 798 734 798 c 1
 734 798 721 749 716 709 c 0
 709 659 709 570 709 570 c 1
 709 570 668 756 550 756 c 2
 445 756 l 1
 441 706 433 593 433 440 c 2
 433 394 l 2
 434 231 438 89 443 56 c 0
 448 23 491 1 491 1 c 1
 280 1 l 1
 280 1 323 14 328 56 c 0
 334 112 338 207 338 345 c 2
 338 394 l 2
 336 573 329 701 325 756 c 1
 216 756 l 1
 103 749 65 570 65 570 c 1
 65 570 65 659 58 709 c 0
 53 749 40 798 40 798 c 1
 40 798 113 790 217 790 c 2
 557 790 l 2
EndSplineSet
Validated: 1
EndChar

StartChar: afii10037
Encoding: 1059 1059 64
Width: 782
GlyphClass: 2
Flags: MW
HStem: 1 24<174.5 246.5>
LayerCount: 2
Fore
SplineSet
159 28 m 1
 159 28 167 25 182 25 c 0
 220 25 298 44 365 183 c 1
 334 259 303 334 254 441 c 0
 189 583 138 682 108 736 c 0
 88 774 50 787 50 787 c 1
 258 787 l 1
 258 787 222 768 222 742 c 0
 222 739 223 735 224 731 c 2
 224 731 284 579 347 441 c 0
 372 386 387 349 417 292 c 1
 474 414 561 593 622 733 c 0
 624 738 625 743 625 747 c 0
 625 776 583 787 583 787 c 1
 742 787 l 1
 742 787 687 758 674 729 c 0
 629 628 592 554 520 399 c 0
 405 151 362 70 311 29 c 0
 291 13 262 1 231 1 c 0
 213 1 195 5 177 15 c 0
 170 19 159 28 159 28 c 1
EndSplineSet
Validated: 1
EndChar

StartChar: afii10038
Encoding: 1060 1060 65
Width: 853
GlyphClass: 2
Flags: MW
HStem: 124 30 632 34<474 474>
VStem: 30 104<329.5 461 329.5 470> 374 94<344 441> 709 104<329.5 461>
LayerCount: 2
Fore
SplineSet
134 395 m 0
 134 264 239 156 370 154 c 1
 373 215 374 294 374 394 c 0
 374 488 372 569 369 632 c 1
 242 629 134 527 134 395 c 0
709 395 m 0
 709 527 601 629 474 632 c 1
 471 569 468 488 468 394 c 0
 468 294 470 215 473 154 c 1
 604 155 709 264 709 395 c 0
813 396 m 0
 813 248 656 126 475 124 c 1
 476 96 478 73 479 55 c 0
 483 23 526 0 526 0 c 1
 316 0 l 1
 316 0 361 14 364 56 c 2
 364 56 367 97 368 124 c 1
 187 126 30 248 30 396 c 0
 30 544 185 665 367 666 c 1
 366 693 364 715 363 733 c 0
 360 775 316 787 316 787 c 1
 526 787 l 1
 525 787 485 775 480 733 c 0
 478 715 476 692 475 666 c 1
 657 665 813 544 813 396 c 0
EndSplineSet
Validated: 1
EndChar

StartChar: afii10039
Encoding: 1061 1061 66
Width: 760
GlyphClass: 2
Flags: W
LayerCount: 2
Fore
SplineSet
508 0 m 1
 508 0 542 19 542 46 c 0
 542 51 541 55 539 60 c 0
 510 123 455 236 376 385 c 1
 188 57 l 2
 183 49 182 42 182 36 c 0
 182 11 212 0 212 0 c 1
 50 0 l 1
 50 0 99 11 133 63 c 0
 175 128 350 416 355 425 c 1
 269 585 206 690 173 743 c 0
 153 773 113 787 113 787 c 1
 318 787 l 1
 318 787 290 779 290 753 c 0
 290 747 292 740 295 733 c 0
 315 689 350 616 404 511 c 1
 465 619 505 692 524 731 c 0
 527 738 529 744 529 750 c 0
 529 778 493 787 493 787 c 1
 653 787 l 1
 653 787 603 772 575 732 c 1
 425 470 l 1
 438 446 451 421 465 394 c 0
 548 238 618 120 657 56 c 0
 681 16 720 0 720 0 c 1
 508 0 l 1
EndSplineSet
Validated: 1
EndChar

StartChar: afii10040
Encoding: 1062 1062 67
Width: 756
GlyphClass: 2
Flags: MW
HStem: 1 34
VStem: 102 85<316.5 477 316.5 477.5> 514 85<316.5 477 316.5 477.5>
LayerCount: 2
Fore
SplineSet
557 1 m 2
 50 1 l 1
 50 1 89 14 92 56 c 0
 96 119 102 237 102 394 c 0
 102 561 97 671 93 731 c 0
 90 773 50 787 50 787 c 1
 239 787 l 1
 239 787 200 762 196 730 c 0
 188 659 187 560 187 394 c 0
 187 239 191 76 201 42 c 1
 211 34 285 34 352 34 c 0
 415 34 491 34 501 42 c 1
 508 73 514 237 514 394 c 0
 514 561 508 671 504 731 c 0
 501 773 461 787 461 787 c 1
 651 787 l 1
 650 787 613 763 608 730 c 0
 600 670 599 560 599 394 c 0
 599 239 606 60 616 35 c 1
 715 35 l 1
 716 -191 l 1
 716 -191 675 1 557 1 c 2
EndSplineSet
Validated: 1
EndChar

StartChar: afii10041
Encoding: 1063 1063 68
Width: 765
GlyphClass: 2
Flags: MW
HStem: 296 47<340.5 416>
VStem: 97 109<731 731> 100.994 97.006 570 96
LayerCount: 2
Fore
SplineSet
510 1 m 1xb0
 510 1 555 13 558 55 c 0
 562 114 569 220 570 362 c 1
 520 321 453 296 379 296 c 0
 225.612304688 296 100.994140625 389.25390625 100.994140625 538.213867188 c 0xb0
 100.994140625 538.80859375 100.99609375 539.404296875 101 540 c 0
 101 637 99 695 97 731 c 0
 94 772 50 787 50 787 c 1
 258 788 l 1
 258 788 208 766 206 730 c 0xd0
 204 689 198 491 198 491 c 2
 198 396 284 343 397 343 c 0
 469 343 533 376 570 424 c 1
 569 574 563 674 559 730 c 0
 556 772 510 788 510 788 c 1
 725 787 l 1
 725 787 681 764 677 731 c 1
 677 730 l 1
 672 670 666 559 666 393 c 0
 666 238 678 55 678 55 c 2
 680 22 725 1 725 1 c 1
 510 1 l 1xb0
EndSplineSet
Validated: 524289
EndChar

StartChar: afii10042
Encoding: 1064 1064 69
Width: 1078
GlyphClass: 2
Flags: MW
HStem: 0 34<348 477 348 1038>
VStem: 109 94<316 477 316 477.5> 494 94<316 477 316 477.5> 886 94<316 477 316 477.5>
LayerCount: 2
Fore
SplineSet
1038 0 m 1
 50 0 l 1
 50 0 94 13 97 55 c 0
 102 118 109 237 109 394 c 0
 109 561 103 671 98 731 c 0
 95 773 51 787 51 787 c 1
 261 787 l 1
 261 787 217 764 214 731 c 2
 214 731 203 560 203 394 c 0
 203 238 209 119 214 55 c 0
 214 49 216 44 218 39 c 1
 229 35 280 34 348 34 c 2
 477 34 l 1
 480 40 494 237 494 394 c 0
 494 561 488 671 483 731 c 0
 480 773 436 787 436 787 c 1
 646 787 l 1
 646 787 602 764 599 731 c 2
 599 731 588 560 588 394 c 0
 588 238 603 40 607 34 c 1
 730 35 853 37 872 44 c 1
 875 53 886 237 886 394 c 0
 886 561 880 672 875 732 c 0
 872 774 827 787 827 787 c 1
 1038 787 l 1
 1038 787 993 765 990 732 c 2
 990 732 980 560 980 394 c 0
 980 238 991 55 991 55 c 2
 993 22 1038 0 1038 0 c 1
EndSplineSet
Validated: 1
EndChar

StartChar: afii10043
Encoding: 1065 1065 70
Width: 1198
GlyphClass: 2
Flags: MW
HStem: 0 34<414 477 609 670>
VStem: 110 94<318 479.5 318 480> 495 94<318 479 318 479> 886 94<318 479 318 482.5>
LayerCount: 2
Fore
SplineSet
1015 0 m 1
 50 0 l 1
 50 0 95 15 98 57 c 0
 103 120 110 239 110 396 c 0
 110 564 104 675 99 734 c 0
 96 775 51 787 51 787 c 1
 261 787 l 1
 261 787 217 767 214 734 c 2
 214 734 204 563 204 396 c 0
 204 240 212 56 218 44 c 1
 235 36 351 34 477 34 c 1
 481 40 495 239 495 396 c 0
 495 562 484 732 484 732 c 2
 481 774 437 787 437 787 c 1
 647 787 l 1
 647 787 602 765 599 732 c 2
 599 732 589 562 589 396 c 0
 589 240 604 41 609 34 c 1
 731 34 854 35 872 44 c 1
 874 55 886 239 886 396 c 0
 886 569 880 681 875 739 c 0
 869 776 828 787 828 787 c 1
 1038 787 l 1
 1038 787 994 767 991 734 c 2
 991 734 980 562 980 396 c 0
 980 240 992 58 992 58 c 2
 993 42 998 35 1006 35 c 0
 1109 35 1158 36 1158 36 c 1
 1158 -190 l 1
 1158 -190 1120 -17 1015 0 c 1
EndSplineSet
Validated: 1
EndChar

StartChar: afii10044
Encoding: 1066 1066 71
Width: 882
GlyphClass: 2
Flags: MW
HStem: 1 33<644 650.5 584 701.5> 377 41<434 434> 384 33 753 34<215 327 215 215>
VStem: 340 94<299.5 377 291 418 291 482> 769 83<164.5 253.5>
LayerCount: 2
Fore
SplineSet
610 383 m 0xdc
 602 383 593 384 583 384 c 0xbc
 539 384 481 380 434 377 c 1
 434 205 442 97 446 43 c 1
 499 39 562 34 606 34 c 0
 695 34 769 120 769 209 c 0
 769 298 699 379 610 383 c 0xdc
644 1 m 2
 292 0 l 1
 292 0 326 20 328 37 c 0
 333 90 340 205 340 394 c 0
 340 570 332 697 327 753 c 1
 215 753 l 1
 103 745 65 571 65 571 c 1
 65 571 65 660 58 710 c 0
 53 750 40 800 40 800 c 1
 40 800 99 789 186 787 c 2
 471 787 l 1
 471 787 451 771 448 751 c 0
 440 691 435 581 434 418 c 1xdc
 644 417 l 2
 759 417 852 324 852 209 c 0
 852 94 759 1 644 1 c 2
EndSplineSet
Validated: 1
EndChar

StartChar: uni042B
Encoding: 1067 1067 72
Width: 964
GlyphClass: 2
Flags: MW
HStem: 1 33<435 441.5 375 492.5> 377 41<225 225> 384 33 767 20G<84 272 272 272 685 895 895 895> 767 20G<84 272 272 272 685 895 895 895>
VStem: 131 94<299.5 377 291 418 291 482.5> 560 83<164.5 253.5> 741 94<406.5 474 314.5 540>
LayerCount: 2
Fore
SplineSet
118 37 m 0xa7
 123 90 131 205 131 394 c 0
 131 571 126 698 118 754 c 0
 115 772 84 787 84 787 c 1
 272 787 l 1
 272 787 240 774 238 755 c 0
 234 701 226 581 225 418 c 1xd7
 435 417 l 2
 550 417 643 324 643 209 c 0
 643 94 550 1 435 1 c 2
 163 0 l 1
 83 0 l 1
 83 0 117 20 118 37 c 0xa7
401 383 m 0
 393 383 384 384 374 384 c 0xa7
 330 384 272 380 225 377 c 1
 225 205 232 96 236 42 c 1
 289 38 353 34 397 34 c 0
 486 34 560 120 560 209 c 0
 560 298 490 379 401 383 c 0
845 62 m 0
 848 21 893 2 893 2 c 1
 682 2 l 1
 682 2 728 34 731 68 c 0
 736 133 741 324 741 489 c 0
 741 591 739 683 734 728 c 0
 730 762 685 787 685 787 c 1
 895 787 l 1x97
 895 787 850 771 846 732 c 0
 840 668 835 552 835 396 c 0
 835 233 840 123 845 62 c 0
EndSplineSet
Validated: 1
EndChar

StartChar: afii10046
Encoding: 1068 1068 73
Width: 629
GlyphClass: 2
Flags: MW
HStem: 0 33<331 391> 376 41<181 181> 383 33
VStem: 87 94<299.5 376 290 417 290 482.5> 516 83<163.5 252.5>
LayerCount: 2
Fore
SplineSet
357 383 m 1xb8
 334 383 l 2xb8
 290 383 229 379 181 376 c 1xd8
 181 204 189 95 193 41 c 1
 246 37 309 33 353 33 c 0
 442 33 516 119 516 208 c 0
 516 297 446 379 357 383 c 1xb8
75 35 m 0
 80 88 87 205 87 394 c 0
 87 571 79 698 74 754 c 0
 71 772 40 787 40 787 c 1
 228 787 l 1
 228 787 197 774 194 755 c 0
 190 701 182 580 181 417 c 1xd8
 391 416 l 2
 506 416 599 323 599 208 c 0
 599 93 506 0 391 0 c 2
 119 0 l 1
 40 0 l 1
 40 0 73 18 75 35 c 0
EndSplineSet
Validated: 1
EndChar

StartChar: uni042D
Encoding: 1069 1069 74
Width: 752
GlyphClass: 2
Flags: MW
HStem: -5 45<296.5 344.5 285.5 403> 750 46<284.5 325 284.5 334>
VStem: 613 99<414 443.5>
LayerCount: 2
Fore
SplineSet
397 787 m 0
 584 746 712 580 712 396 c 0
 712 367 709 339 703 310 c 0
 662 123 495 -5 311 -5 c 0
 282 -5 254 -2 225 4 c 0
 173 15 126 36 84 65 c 0
 76 71 67 74 62 72 c 1
 40 196 l 1
 78 122 147 66 234 47 c 0
 255 43 275 40 296 40 c 0
 393 40 483 90 536 170 c 0
 563 212 584 260 597 311 c 1
 597 311 447 348 397 358 c 0
 386 360 377 361 368 361 c 0
 314 361 290 327 290 327 c 1
 322 464 l 1
 322 464 331 409 409 389 c 0
 458 377 605 343 605 343 c 1
 610 372 613 400 613 428 c 0
 613 459 610 489 605 519 c 0
 583 627 500 718 385 743 c 0
 365 747 344 750 324 750 c 0
 235 750 152 708 98 639 c 1
 132 775 l 1
 135 768 154 764 158 766 c 0
 206 786 258 796 311 796 c 0
 339 796 368 793 397 787 c 0
EndSplineSet
Validated: 1
EndChar

StartChar: afii10048
Encoding: 1070 1070 75
Width: 1102
GlyphClass: 2
Flags: MW
HStem: -12 46<619.5 664.5> 377 34<189 244 189 244> 751 48<635.5 681>
VStem: 95 94<312.5 377 303 411 411 471> 244 101<377 447.5 411 447.5> 958 98<338.5 370>
LayerCount: 2
Fore
SplineSet
353 518 m 0
 348 493 345 463 345 432 c 0
 345 397 349 361 356 327 c 0
 369 268 400 201 424 164 c 0
 473 88 569 34 670 34 c 0
 689 34 709 36 728 40 c 0
 848 66 937 167 953 277 c 0
 956 297 958 324 958 353 c 0
 958 387 955 423 949 455 c 0
 936 519 909 585 873 631 c 0
 819 701 729 751 633 751 c 0
 614 751 595 749 576 745 c 0
 460 720 374 621 353 518 c 0
244 377 m 1
 189 377 l 1
 189 229 195 126 199 66 c 0
 202 32 247 1 247 1 c 1
 37 1 l 1
 37 1 81 19 85 60 c 0
 90 121 95 231 95 394 c 0
 95 548 89 664 84 728 c 0
 80 768 35 787 35 787 c 1
 245 787 l 1
 245 787 200 760 196 726 c 0
 190 679 189 588 189 488 c 2
 189 411 l 1
 244 411 l 1
 252 591 379 750 563 790 c 0
 592 796 621 799 650 799 c 0
 837 799 1005 670 1047 480 c 0
 1053 451 1056 422 1056 393 c 0
 1056 206 927 39 737 -3 c 0
 708 -9 679 -12 650 -12 c 0
 463 -12 295 117 253 307 c 0
 248 331 245 354 244 377 c 1
EndSplineSet
Validated: 1
EndChar

StartChar: afii10049
Encoding: 1071 1071 76
Width: 754
GlyphClass: 2
Flags: MW
HStem: 386 32<491 491> 755 33
VStem: 198 80<544 630 544 642.5> 559 94<312.5 385 418 471 312.5 493 312.5 542.5>
LayerCount: 2
Fore
SplineSet
278 587 m 0
 278 501 349 418 435 418 c 2
 559 418 l 1
 559 493 l 2
 559 592 558 681 552 727 c 0
 551 736 547 744 542 751 c 1
 517 753 488 755 461 755 c 0
 450 755 440 755 430 754 c 0
 345 750 278 673 278 587 c 0
663 61 m 0
 667 20 711 1 711 1 c 1
 500 1 l 1
 500 1 546 33 549 67 c 0
 553 128 559 234 559 385 c 1
 491 386 l 1
 225 54 l 2
 221 49 220 43 220 39 c 0
 220 15 264 1 264 1 c 1
 30 2 l 1
 30 2 96 26 142 90 c 1
 144 92 l 1
 381 388 l 1
 278 396 198 482 198 587 c 0
 198 698 288 788 399 788 c 2
 595 787 l 1
 714 787 l 1
 714 787 668 769 664 729 c 0
 659 665 653 548 653 394 c 0
 653 231 658 122 663 61 c 0
EndSplineSet
Validated: 1
EndChar

StartChar: afii10065
Encoding: 1072 1072 77
Width: 700
GlyphClass: 2
Flags: MW
HStem: 378 33<253 429 253 437 243 429>
LayerCount: 2
Fore
SplineSet
253 411 m 1
 429 411 l 1
 392 571 361 679 344 736 c 1
 253 411 l 1
40 1 m 1
 40 1 92 26.0009765625 106 63.0009765625 c 0
 177 254.000976562 243 488.000976562 304 753.000976562 c 0
 304.190429688 753.762695312 304.28125 754.529296875 304.28125 755.297851562 c 0
 304.28125 770.673828125 268 787 268 787 c 1
 500 787 l 1
 500 787 460 776 460 741 c 0
 460 739 461 737 461 734 c 0
 470 675 488 564 527 394 c 0
 562 238 596 120 615 56 c 0
 627 16 660 1 660 1 c 1
 449 1 l 1
 449 1 498 24 498 56 c 0
 498 120 469 233 437 378 c 1
 243 378 l 1
 154 59 l 2
 153 56 153 52 153 49 c 0
 153 16 202 1 202 1 c 1
 40 1 l 1
EndSplineSet
Validated: 524289
EndChar

StartChar: afii10066
Encoding: 1073 1073 78
Width: 649
GlyphClass: 2
Flags: MW
HStem: 0 33<341 401> 375 41<192 192> 382 33 753 34<205 375 205 205>
VStem: 98 94<299 375 289.5 416 289.5 481> 526 83<163.5 252.5>
LayerCount: 2
Fore
SplineSet
368 381 m 0xdc
 360 381 351 382 341 382 c 0xbc
 297 382 239 378 192 375 c 1
 192 204 199 95 203 41 c 1
 256 37 319 33 363 33 c 0
 452 33 526 119 526 208 c 0
 526 297 457 377 368 381 c 0xdc
85 754 m 0
 82 775 50 787 50 787 c 1
 382 787 l 2
 486 789 558 796 558 796 c 1
 558 796 546 746 541 706 c 0
 534 656 534 568 534 568 c 1
 534 568 493 753 375 753 c 2
 205 753 l 1
 201 700 193 580 192 416 c 1xdc
 401 415 l 2
 516 415 609 323 609 208 c 0
 609 93 516 0 401 0 c 2
 50 0 l 1
 51 1 82 12 85 35 c 0
 92 80 98 206 98 392 c 0
 98 570 89 699 85 754 c 0
EndSplineSet
Validated: 1
EndChar

StartChar: afii10067
Encoding: 1074 1074 79
Width: 650
GlyphClass: 2
Flags: MW
HStem: 1 32<342 402> 383 35<192 203.5> 755 34<266 373.5>
VStem: 98 94<298.5 383 295 418 295 487> 439 80<550.5 630> 527 83<163.5 252.5>
LayerCount: 2
Fore
SplineSet
87 753 m 0
 84 769 50 787 50 787 c 1
 123 787 l 1
 318 789 l 2
 429 789 519 698 519 587 c 0
 519 514 480 450 421 415 c 1
 527 405 610 316 610 208 c 0
 610 93 517 1 402 1 c 2
 51 1 l 1
 51 1 84 19 86 36 c 0
 91 89 98 204 98 393 c 0
 98 581 96 702 87 753 c 0
527 208 m 0
 527 297 457 378 368 382 c 0
 341 383 304 384 267 384 c 0
 241 384 215 383 192 383 c 1
 192 207 199 96 204 42 c 1
 257 38 320 33 364 33 c 0
 453 33 527 119 527 208 c 0
287 755 m 1
 266 755 l 2
 246 755 225 754 205 753 c 1
 201 699 193 580 192 418 c 1
 282 418 l 2
 368 418 439 501 439 587 c 0
 439 673 372 751 287 755 c 1
EndSplineSet
Validated: 1
EndChar

StartChar: afii10068
Encoding: 1075 1075 80
Width: 655
GlyphClass: 2
Flags: MW
HStem: 754 33<215 432 215 215>
VStem: 108 94<316 394 394 483.5>
LayerCount: 2
Fore
SplineSet
98 61 m 0
 103 122 108 231 108 394 c 0
 108 573 108 686 97 749 c 0
 93 773 62 787 62 787 c 1
 471 787 l 2
 557 789 615 797 615 797 c 1
 615 797 603 766 598 716 c 0
 592 660 591 569 591 569 c 1
 591 569 550 754 432 754 c 2
 215 754 l 1
 203 727 202 619 202 495 c 2
 202 394 l 2
 202 238 209 123 213 61 c 0
 216 27 260 1 260 1 c 1
 50 1 l 1
 50 1 94 20 98 61 c 0
EndSplineSet
Validated: 1
EndChar

StartChar: afii10069
Encoding: 1076 1076 81
Width: 778
GlyphClass: 2
Flags: MW
HStem: 1 31<194 533 194 194> 767 20G<298 530 530 530>
VStem: 126 52<32 32> 533 120<32 32>
LayerCount: 2
Fore
SplineSet
178 32 m 1
 533 32 l 1
 525 86 504 215 463 395 c 0
 425 562 393 674 375 734 c 1
 178 32 l 1
126 32 m 1
 144 81 191 212 246 401 c 0
 296 570 335 688 335 742 c 0
 335 761 310 781 298 787 c 1
 530 787 l 1
 530 787 490 777 490 742 c 0
 490 740 491 738 491 735 c 0
 500 676 518 565 557 395 c 0
 598 215 636 86 653 32 c 1
 738 32 l 1
 738 -191 l 1
 738 -191 697 -5 583 1 c 1
 194 1 l 1
 81 -5 40 -191 40 -191 c 1
 40 32 l 1
 126 32 l 1
EndSplineSet
Validated: 1
EndChar

StartChar: afii10070
Encoding: 1077 1077 82
Width: 645
GlyphClass: 2
Flags: MW
HStem: 1 31<204 422 204 428> 377 34<191 343 191 191> 754 33<204 421 204 204>
VStem: 97 94<377 377 377 411 377 483.5>
LayerCount: 2
Fore
SplineSet
86 37 m 0
 90 86 97 199 97 396 c 0
 97 571 89 697 84 754 c 0
 82 772 50 787 50 787 c 1
 428 787 l 2
 531 787 605 800 605 800 c 1
 605 800 593 751 587 711 c 0
 581 660 580 572 580 572 c 1
 580 572 539 754 421 754 c 2
 204 754 l 1
 199 698 192 576 191 411 c 1
 342 412 l 2
 427 414 446 466 446 466 c 1
 446 322 l 1
 446 322 424 374 343 377 c 2
 191 377 l 1
 192 192 200 80 204 32 c 1
 422 32 l 2
 539 33 580 217 580 217 c 1
 580 217 581 128 587 78 c 0
 593 38 605 -12 605 -12 c 1
 605 -12 531 1 428 1 c 2
 50 1 l 1
 50 1 82 19 86 37 c 0
EndSplineSet
Validated: 1
EndChar

StartChar: afii10072
Encoding: 1078 1078 83
Width: 1172
GlyphClass: 2
Flags: MW
VStem: 541 94<348 350>
LayerCount: 2
Fore
SplineSet
155 75 m 2
 508 428 l 1
 221 717 l 2
 164 770 116 785 116 785 c 1
 283 786 l 1
 283 786 263 776 263 758 c 0
 263 751 266 744 273 735 c 2
 540 467 l 1
 538 585 534 675 530 729 c 0
 526 769 480 787 480 787 c 1
 690 787 l 1
 690 787 646 762 642 728 c 0
 636 678 635 580 635 473 c 1
 898 737 l 2
 905 746 908 753 908 760 c 0
 908 778 888 788 888 788 c 1
 1055 788 l 1
 1055 788 1007 772 950 719 c 2
 663 430 l 1
 1017 76 l 2
 1072 23 1132 1 1132 1 c 1
 899 1 l 1
 899 1 936 15 936 37 c 0
 936 43 933 50 926 57 c 2
 635 348 l 1
 636 217 641 125 645 69 c 0
 648 35 692 1 692 1 c 1
 483 1 l 1
 483 1 526 27 530 68 c 0
 534 123 540 212 541 350 c 1
 246 55 l 2
 238 47 236 40 236 34 c 0
 236 12 272 0 272 0 c 1
 40 0 l 1
 40 0 101 21 155 75 c 2
EndSplineSet
Validated: 1
EndChar

StartChar: afii10073
Encoding: 1079 1079 84
Width: 569
GlyphClass: 2
Flags: MW
HStem: 1 35<257 264 264 268> 468 17<223.5 225 225 232> 759 27<241 267 267 274.5>
VStem: 75 0<614 614 624 624> 348 76<598.5 657> 419 110<185.5 301 176.5 309>
LayerCount: 2
Fore
SplineSet
322 481 m 1xf8
 438 455 529 358 529 244 c 0
 529 109 412 1 268 1 c 2
 264 1 l 2
 250 1 50 3 50 103 c 0
 50 103.063476562 50.0341796875 103.094726562 50.1025390625 103.094726562 c 0
 53.2490234375 103.094726562 128.33984375 36.978515625 236 36 c 2
 238 36 l 2
 354 36 419 124 419 247 c 0xf4
 419 371 349 463 232 468 c 1
 225 468 l 2
 202 468 193 464 193 464 c 1
 193 464 189 488 189 490 c 1
 189 490 202 485 245 485 c 0
 310 485 348 571 348 626 c 0
 348 688 308 759 241 759 c 0
 109 756 89 660 75 614 c 1
 75 624 l 2
 75 647 74 703 69 742 c 0
 64 782 60 795 60 795 c 1
 60 795 81 772 115 772 c 0
 120 772 125 773 131 774 c 0
 161 780 196 784 219 786 c 2
 220 786 l 1
 232 786 l 1
 237 786 l 1
 238 786 l 1
 267 786 l 2
 353 786 424 713 424 627 c 0
 424 560 381 503 322 481 c 1xf8
EndSplineSet
Validated: 524289
EndChar

StartChar: afii10074
Encoding: 1080 1080 85
Width: 756
GlyphClass: 2
Flags: MW
HStem: 0 21G<218 218> 0 21G<218 218> 767 20G<51 259 259 259 549 716 716 716> 767 20G<51 259 259 259 549 716 716 716>
VStem: 108 94<325 473.5 325 474.5> 565 94<396 457 396 462.5>
LayerCount: 2
Fore
SplineSet
98 59 m 0xac
 103 119 108 229 108 396 c 0
 108 553 102 671 97 734 c 0
 94 776 51 787 51 787 c 1
 259 787 l 1
 259 787 216 767 214 734 c 1
 213 734 l 1
 208 670 202 551 202 396 c 0
 202 254 207 153 211 89 c 1
 252 158 311 266 378 404 c 0
 493.001953125 642.775390625 549.114257812 774.219726562 549.114257812 786.298828125 c 0
 549.114257812 786.614257812 549.076171875 786.84765625 549 787 c 1x9c
 716 787 l 1
 716 787 676 765 670 732 c 0
 664 700 659 587 659 457 c 2
 659 396 l 2
 661 230 669 59 669 59 c 2
 672 26 716 1 716 1 c 1
 507 1 l 1
 507 1 551 17 554 59 c 0
 559 119 565 229 565 396 c 0
 565 529 560 634 556 702 c 1
 218 1 l 1
 218 1 218 0 218 0 c 1
 218 0 50 1 50 1 c 1
 50 1 95 17 98 59 c 0xac
EndSplineSet
Validated: 524289
EndChar

StartChar: afii10075
Encoding: 1081 1081 86
Width: 757
GlyphClass: 2
Flags: MW
HStem: 0 21G<50 218 50 50> 0 21G<50 218 50 50> 767 20G<549 717 717 717> 828 27<366.5 397.5> 841 46
VStem: 108 94<326.001 475.501> 565 94<397 427 397 466>
LayerCount: 2
Fore
SplineSet
248 887 m 1x2e
 289 866 334 855 383 855 c 0
 431 855 477 867 517 888 c 1
 517 888 486 849 471 842 c 0
 450 833 413 828 382 828 c 0x36
 351 828 308 835 294 841 c 0
 279 848 248 887 248 887 c 1x2e
97 60 m 0
 102 120 108 230.000976562 108 397.000976562 c 0
 108 554.000976562 101 672.000976562 97 735.000976562 c 1
 97 736.000976562 l 2
 94 778.000976562 51 787.000976562 51 787.000976562 c 1
 93 787.000976562 l 1
 218 787.000976562 l 1
 261 787.000976562 l 1
 261 787.000976562 218 769.000976562 214 737.000976562 c 0
 209 674.000976562 202 555.000976562 202 397.000976562 c 0
 202 255.000976562 206 154.000976562 210 90.0009765625 c 1
 248 158.000976562 305 264.000976562 371 401.000976562 c 0
 488.110351562 642.109375 549.047851562 769.905273438 549.047851562 786.293945312 c 0
 549.047851562 786.55859375 549.032226562 786.793945312 549 787 c 1
 717 787 l 1
 717 787 673 769 670 736 c 0
 665 686 659 569 659 427 c 2
 659 397 l 2
 660 231 667 89 669 60 c 0
 671 27 717 1 717 1 c 1
 507 1 l 1
 507 1 551 18 554 60 c 0
 559 120 565 230 565 397 c 0
 565 535 559 642 555 709 c 1
 218 0 l 1
 50 0 l 1xa6
 50 0 94 18 97 60 c 0
EndSplineSet
Validated: 524289
EndChar

StartChar: afii10076
Encoding: 1082 1082 87
Width: 741
GlyphClass: 2
Flags: MW
VStem: 110 94<347 347 347 472>
LayerCount: 2
Fore
SplineSet
211 727 m 0
 205 677 204 580 204 473 c 1
 468 737 l 2
 475 746 478 754 478 760 c 0
 478 778 458 787 458 787 c 1
 625 787 l 1
 625 787 577 772 520 719 c 2
 232 430 l 1
 232 430 497 163 586 75 c 0
 641 21 701 1 701 1 c 1
 467 1 l 1
 467 1 505 14 505 36 c 0
 505 42 502 49 495 56 c 2
 204 347 l 1
 205 216 210 124 214 68 c 0
 217 34 264 1 264 1 c 1
 51 1 l 1
 51 1 96 21 100 62 c 0
 105 123 110 232 110 395 c 0
 110 549 104 665 99 729 c 0
 95 769 50 787 50 787 c 1
 260 787 l 1
 260 787 215 761 211 727 c 0
EndSplineSet
Validated: 1
EndChar

StartChar: afii10077
Encoding: 1083 1083 88
Width: 701
GlyphClass: 2
Flags: W
LayerCount: 2
Fore
SplineSet
615 57 m 0
 627 17 661 0 661 0 c 1
 450 0 l 1
 450 0 499 25 499 57 c 0
 499 124 469 242 434 395 c 0
 396 561 364 673 346 733 c 1
 156 58 l 2
 155 55 155 51 155 48 c 0
 155 15 203 0 203 0 c 1
 40 0 l 1
 40 0 97 31 108 63 c 0
 131 127 172 243 217 398 c 0
 269 578 307 700 307 746 c 0
 307 771 268 787 268 787 c 1
 501 787 l 1
 501 787 460 777 460 742 c 0
 460 740 461 738 461 735 c 0
 470 676 489 565 528 395 c 0
 563 239 596 121 615 57 c 0
EndSplineSet
Validated: 1
EndChar

StartChar: afii10078
Encoding: 1084 1084 89
Width: 1071
GlyphClass: 2
Flags: MW
HStem: 767 20G<268 500 500 500 638 871 871 871> 767 20G<268 500 500 500 638 871 871 871>
LayerCount: 2
Fore
SplineSet
527 395 m 0x40
 535 359 543 321 550 291 c 1
 560 322 570 356 580 391 c 0
 633 572 672 692 672 744 c 0
 672 765 646 784 638 787 c 1x40
 871 787 l 1x80
 871 787 830 776 830 741 c 0
 830 739 831 737 831 734 c 0
 840 675 858 564 897 394 c 0
 932 238 966 120 985 56 c 0
 997 16 1031 1 1031 1 c 1
 821 1 l 1
 821 1 868 23 868 55 c 0
 868 122 838 241 803 394 c 0
 764 564 732 678 714 737 c 1
 507 3 l 1
 506 3 l 1
 506 3 488 153 433 395 c 0
 395 564 363 677 345 736 c 1
 155 62 l 2
 154 58 154 55 154 52 c 0
 154 18 202 1 202 1 c 1
 40 1 l 1
 40 1 93 31 106 66 c 0
 128 128 170 247 217 408 c 0
 265 573 294 685 305 740 c 0
 305 742 306 743 306 745 c 0
 306 769 268 787 268 787 c 1
 500 787 l 1
 500 787 460 777 460 742 c 0
 460 740 461 738 461 735 c 0
 470 676 488 565 527 395 c 0x40
EndSplineSet
Validated: 1
EndChar

StartChar: afii10079
Encoding: 1085 1085 90
Width: 758
GlyphClass: 2
Flags: MW
HStem: 377 34<203 206 565.5 566> 767 20G<51 261 261 261 508 508> 767 20G<51 261 261 261 508 508>
VStem: 109 94<310.5 377 411 472.5> 566 93<298 529.5 458 485.5>
LayerCount: 2
Fore
SplineSet
98 57 m 0xd8
 103 117 109 227 109 394 c 0
 109 551 103 670 98 733 c 0
 95 775 51 787 51 787 c 1xd8
 261 787 l 1xb8
 252 784 218 767 214 733 c 0
 206 664 203 558 203 411 c 1
 209 411 308 408 384 408 c 0
 459 408 563 411 566 411 c 1
 566 560 558 672 554 733 c 0
 551 775 508 787 508 787 c 1
 718 788 l 1
 712 783 674 756 671 733 c 0
 664 680 659 589 659 470 c 0
 659 446 660 420 660 394 c 0
 663 228 662 130 672 56 c 0
 676 23 718 0 718 0 c 1
 508 0 l 1
 508 0 552 15 555 57 c 0
 559 115 566 219 566 377 c 1
 565 377 453 380 383 380 c 0
 310 380 209 377 203 377 c 1
 203 221 215 58 215 58 c 2
 218 25 262 0 262 0 c 1
 50 0 l 1
 50 0 95 15 98 57 c 0xd8
EndSplineSet
Validated: 1
EndChar

StartChar: afii10080
Encoding: 1086 1086 91
Width: 903
GlyphClass: 2
Flags: MW
HStem: -18 49<424 459> 767 50<440 488>
VStem: 40 102<422 456 422 494.5> 772 101<350 382>
LayerCount: 2
Fore
SplineSet
150 528 m 0
 145 502 142 472 142 440 c 0
 142 404 146 367 153 332 c 0
 166 271 199 203 223 165 c 0
 273 87 372 31 476 31 c 0
 496 31 516 33 536 37 c 0
 659 64 749 169 766 281 c 0
 770 303 772 334 772 366 c 0
 772 398 769 433 763 463 c 0
 749 529 722 596 685 644 c 0
 629 716 537 767 439 767 c 0
 419 767 399 765 379 761 c 0
 260 735 171 633 150 528 c 0
48 311 m 0
 42 338 40 366 40 392 c 0
 40 597 199 771 366 807 c 0
 396 814 425 817 455 817 c 0
 647 817 821 684 863 489 c 0
 870 459 873 429 873 400 c 0
 873 208 740 35 545 -7 c 0
 510 -15 476 -18 442 -18 c 0
 256 -18 92 95 48 311 c 0
EndSplineSet
Validated: 1
EndChar

StartChar: afii10081
Encoding: 1087 1087 92
Width: 757
GlyphClass: 2
Flags: MW
HStem: 754 33<348 420>
VStem: 108 94<368 394 394 394> 565 94<309.5 472 309.5 472.5>
LayerCount: 2
Fore
SplineSet
669 55 m 0
 673 23 717 1 717 1 c 1
 507 1 l 1
 507 1 548 13 554 51 c 0
 559 109 565 221 565 394 c 0
 565 551 556 709 551 745 c 1
 540 753 455 754 385 754 c 0
 311 754 228 754 216 746 c 1
 207 690 202 550 202 394 c 0
 202 225 208 115 213 55 c 0
 217 23 260 1 260 1 c 1
 50 1 l 1
 50 1 94 21 97 56 c 0
 100 89 108 213 108 368 c 2
 108 394 l 2
 107 551 102 670 97 733 c 0
 94 775 50 787 50 787 c 1
 717 787 l 1
 714 784 673 761 670 733 c 0
 664 669 659 550 659 394 c 0
 659 225 664 115 669 55 c 0
EndSplineSet
Validated: 1
EndChar

StartChar: afii10082
Encoding: 1088 1088 93
Width: 558
GlyphClass: 2
Flags: MW
HStem: 386 33<191 281> 755 34<263 372.5>
VStem: 97 94<299 346 346 386 263 419 263 488> 438 80<544.5 630>
LayerCount: 2
Fore
SplineSet
318 387 m 2
 191 386 l 1
 191 346 l 2
 191 180 197 75 204 32 c 0
 206 13 238 1 238 1 c 1
 50 1 l 1
 50 1 82 18 85 35 c 0
 89 87 97 204 97 394 c 0
 97 582 90 704 83 763 c 0
 81 776 50 787 50 787 c 1
 123 787 l 1
 317 789 l 2
 428 789 518 698 518 587 c 0
 518 477 429 387 318 387 c 2
286 755 m 1
 263 755 l 2
 244 755 223 755 204 754 c 1
 200 700 192 580 191 419 c 1
 281 419 l 2
 367 419 438 502 438 587 c 0
 438 673 371 751 286 755 c 1
EndSplineSet
Validated: 1
EndChar

StartChar: afii10083
Encoding: 1089 1089 94
Width: 780
GlyphClass: 2
Flags: MW
HStem: -17 48<422.5 472.5> 770 49<445 487.5 445 490.5> 777 20G<644 644>
VStem: 40 105<415.5 448 415.5 497>
LayerCount: 2
Fore
SplineSet
152 529 m 0xd0
 148 496 145 464 145 432 c 0
 145 399 148 367 155 333 c 0
 168 272 200 204 225 165 c 0
 279 82 372 31 473 31 c 0
 494 31 516 33 538 38 c 0
 629 58 701 117 740 194 c 1
 718 64 l 1
 713 66 703 63 695 57 c 0
 652 27 602 5 547 -7 c 0
 517 -13 487 -17 458 -17 c 0
 266 -17 93 117 50 312 c 0
 44 342 40 372 40 401 c 0
 40 593 174 766 369 809 c 0
 399 816 430 819 460 819 c 0xd0
 515 819 569 808 618 787 c 0
 622 785 641 789 644 797 c 1xb0
 680 655 l 1
 624 726 537 770 444 770 c 0
 423 770 402 768 381 763 c 0
 262 737 167 643 152 529 c 0xd0
EndSplineSet
Validated: 1
EndChar

StartChar: afii10084
Encoding: 1090 1090 95
Width: 774
GlyphClass: 2
Flags: MW
HStem: 756 34<217 325 216 557 445 550 445 445>
VStem: 338 95<345 440 394 440>
LayerCount: 2
Fore
SplineSet
557 790 m 2
 661 790 734 798 734 798 c 1
 734 798 721 749 716 709 c 0
 709 659 709 570 709 570 c 1
 709 570 668 756 550 756 c 2
 445 756 l 1
 441 706 433 593 433 440 c 2
 433 394 l 2
 434 231 438 89 443 56 c 0
 448 23 491 1 491 1 c 1
 280 1 l 1
 280 1 323 14 328 56 c 0
 334 112 338 207 338 345 c 2
 338 394 l 2
 336 573 329 701 325 756 c 1
 216 756 l 1
 103 749 65 570 65 570 c 1
 65 570 65 659 58 709 c 0
 53 749 40 798 40 798 c 1
 40 798 113 790 217 790 c 2
 557 790 l 2
EndSplineSet
Validated: 1
EndChar

StartChar: afii10085
Encoding: 1091 1091 96
Width: 772
GlyphClass: 2
Flags: MW
HStem: 1 24<174.5 246.5>
LayerCount: 2
Fore
SplineSet
159 28 m 1
 159 28 167 25 182 25 c 0
 220 25 298 44 365 183 c 1
 334 259 303 334 254 441 c 0
 189 583 138 682 108 736 c 0
 88 774 50 787 50 787 c 1
 258 787 l 1
 258 787 222 768 222 742 c 0
 222 739 223 735 224 731 c 2
 224 731 284 579 347 441 c 0
 372 386 387 349 417 292 c 1
 474 414 561 593 622 733 c 0
 624 738 625 743 625 747 c 0
 625 776 583 787 583 787 c 1
 742 787 l 1
 742 787 687 758 674 729 c 0
 629 628 592 554 520 399 c 0
 405 151 362 70 311 29 c 0
 291 13 262 1 231 1 c 0
 213 1 195 5 177 15 c 0
 170 19 159 28 159 28 c 1
EndSplineSet
Validated: 1
EndChar

StartChar: afii10086
Encoding: 1092 1092 97
Width: 853
GlyphClass: 2
Flags: MW
HStem: 124 30 632 34<474 474>
VStem: 30 104<329.5 461 329.5 470> 374 94<344 441> 709 104<329.5 461>
LayerCount: 2
Fore
SplineSet
134 395 m 0
 134 264 239 156 370 154 c 1
 373 215 374 294 374 394 c 0
 374 488 372 569 369 632 c 1
 242 629 134 527 134 395 c 0
709 395 m 0
 709 527 601 629 474 632 c 1
 471 569 468 488 468 394 c 0
 468 294 470 215 473 154 c 1
 604 155 709 264 709 395 c 0
813 396 m 0
 813 248 656 126 475 124 c 1
 476 96 478 73 479 55 c 0
 483 23 526 0 526 0 c 1
 316 0 l 1
 316 0 361 14 364 56 c 2
 364 56 367 97 368 124 c 1
 187 126 30 248 30 396 c 0
 30 544 185 665 367 666 c 1
 366 693 364 715 363 733 c 0
 360 775 316 787 316 787 c 1
 526 787 l 1
 525 787 485 775 480 733 c 0
 478 715 476 692 475 666 c 1
 657 665 813 544 813 396 c 0
EndSplineSet
Validated: 1
EndChar

StartChar: afii10087
Encoding: 1093 1093 98
Width: 760
GlyphClass: 2
Flags: W
LayerCount: 2
Fore
SplineSet
508 0 m 1
 508 0 542 19 542 46 c 0
 542 51 541 55 539 60 c 0
 510 123 455 236 376 385 c 1
 188 57 l 2
 183 49 182 42 182 36 c 0
 182 11 212 0 212 0 c 1
 50 0 l 1
 50 0 99 11 133 63 c 0
 175 128 350 416 355 425 c 1
 269 585 206 690 173 743 c 0
 153 773 113 787 113 787 c 1
 318 787 l 1
 318 787 290 779 290 753 c 0
 290 747 292 740 295 733 c 0
 315 689 350 616 404 511 c 1
 465 619 505 692 524 731 c 0
 527 738 529 744 529 750 c 0
 529 778 493 787 493 787 c 1
 653 787 l 1
 653 787 603 772 575 732 c 1
 425 470 l 1
 438 446 451 421 465 394 c 0
 548 238 618 120 657 56 c 0
 681 16 720 0 720 0 c 1
 508 0 l 1
EndSplineSet
Validated: 1
EndChar

StartChar: afii10088
Encoding: 1094 1094 99
Width: 756
GlyphClass: 2
Flags: MW
HStem: 1 34
VStem: 102 85<316.5 477 316.5 477.5> 514 85<316.5 477 316.5 477.5>
LayerCount: 2
Fore
SplineSet
557 1 m 2
 50 1 l 1
 50 1 89 14 92 56 c 0
 96 119 102 237 102 394 c 0
 102 561 97 671 93 731 c 0
 90 773 50 787 50 787 c 1
 239 787 l 1
 239 787 200 762 196 730 c 0
 188 659 187 560 187 394 c 0
 187 239 191 76 201 42 c 1
 211 34 285 34 352 34 c 0
 415 34 491 34 501 42 c 1
 508 73 514 237 514 394 c 0
 514 561 508 671 504 731 c 0
 501 773 461 787 461 787 c 1
 651 787 l 1
 650 787 613 763 608 730 c 0
 600 670 599 560 599 394 c 0
 599 239 606 60 616 35 c 1
 715 35 l 1
 716 -191 l 1
 716 -191 675 1 557 1 c 2
EndSplineSet
Validated: 1
EndChar

StartChar: afii10089
Encoding: 1095 1095 100
Width: 765
GlyphClass: 2
Flags: MW
HStem: 296 47<340.5 416>
VStem: 97 109<731 731> 100.994 97.006 570 96
LayerCount: 2
Fore
SplineSet
510 1 m 1xb0
 510 1 555 13 558 55 c 0
 562 114 569 220 570 362 c 1
 520 321 453 296 379 296 c 0
 225.612304688 296 100.994140625 389.25390625 100.994140625 538.213867188 c 0xb0
 100.994140625 538.80859375 100.99609375 539.404296875 101 540 c 0
 101 637 99 695 97 731 c 0
 94 772 50 787 50 787 c 1
 258 788 l 1
 258 788 208 766 206 730 c 0xd0
 204 689 198 491 198 491 c 2
 198 396 284 343 397 343 c 0
 469 343 533 376 570 424 c 1
 569 574 563 674 559 730 c 0
 556 772 510 788 510 788 c 1
 725 787 l 1
 725 787 681 764 677 731 c 1
 677 730 l 1
 672 670 666 559 666 393 c 0
 666 238 678 55 678 55 c 2
 680 22 725 1 725 1 c 1
 510 1 l 1xb0
EndSplineSet
Validated: 524289
EndChar

StartChar: afii10090
Encoding: 1096 1096 101
Width: 1078
GlyphClass: 2
Flags: MW
HStem: 0 34<348 477 348 1038>
VStem: 109 94<316 477 316 477.5> 494 94<316 477 316 477.5> 886 94<316 477 316 477.5>
LayerCount: 2
Fore
SplineSet
1038 0 m 1
 50 0 l 1
 50 0 94 13 97 55 c 0
 102 118 109 237 109 394 c 0
 109 561 103 671 98 731 c 0
 95 773 51 787 51 787 c 1
 261 787 l 1
 261 787 217 764 214 731 c 2
 214 731 203 560 203 394 c 0
 203 238 209 119 214 55 c 0
 214 49 216 44 218 39 c 1
 229 35 280 34 348 34 c 2
 477 34 l 1
 480 40 494 237 494 394 c 0
 494 561 488 671 483 731 c 0
 480 773 436 787 436 787 c 1
 646 787 l 1
 646 787 602 764 599 731 c 2
 599 731 588 560 588 394 c 0
 588 238 603 40 607 34 c 1
 730 35 853 37 872 44 c 1
 875 53 886 237 886 394 c 0
 886 561 880 672 875 732 c 0
 872 774 827 787 827 787 c 1
 1038 787 l 1
 1038 787 993 765 990 732 c 2
 990 732 980 560 980 394 c 0
 980 238 991 55 991 55 c 2
 993 22 1038 0 1038 0 c 1
EndSplineSet
Validated: 1
EndChar

StartChar: afii10091
Encoding: 1097 1097 102
Width: 1198
GlyphClass: 2
Flags: MW
HStem: 0 34<414 477 609 670>
VStem: 110 94<318 479.5 318 480> 495 94<318 479 318 479> 886 94<318 479 318 482.5>
LayerCount: 2
Fore
SplineSet
1015 0 m 1
 50 0 l 1
 50 0 95 15 98 57 c 0
 103 120 110 239 110 396 c 0
 110 564 104 675 99 734 c 0
 96 775 51 787 51 787 c 1
 261 787 l 1
 261 787 217 767 214 734 c 2
 214 734 204 563 204 396 c 0
 204 240 212 56 218 44 c 1
 235 36 351 34 477 34 c 1
 481 40 495 239 495 396 c 0
 495 562 484 732 484 732 c 2
 481 774 437 787 437 787 c 1
 647 787 l 1
 647 787 602 765 599 732 c 2
 599 732 589 562 589 396 c 0
 589 240 604 41 609 34 c 1
 731 34 854 35 872 44 c 1
 874 55 886 239 886 396 c 0
 886 569 880 681 875 739 c 0
 869 776 828 787 828 787 c 1
 1038 787 l 1
 1038 787 994 767 991 734 c 2
 991 734 980 562 980 396 c 0
 980 240 992 58 992 58 c 2
 993 42 998 35 1006 35 c 0
 1109 35 1158 36 1158 36 c 1
 1158 -190 l 1
 1158 -190 1120 -17 1015 0 c 1
EndSplineSet
Validated: 1
EndChar

StartChar: afii10092
Encoding: 1098 1098 103
Width: 882
GlyphClass: 2
Flags: MW
HStem: 1 33<644 650.5 584 701.5> 377 41<434 434> 384 33 753 34<215 327 215 215>
VStem: 340 94<299.5 377 291 418 291 482> 769 83<164.5 253.5>
LayerCount: 2
Fore
SplineSet
610 383 m 0xdc
 602 383 593 384 583 384 c 0xbc
 539 384 481 380 434 377 c 1
 434 205 442 97 446 43 c 1
 499 39 562 34 606 34 c 0
 695 34 769 120 769 209 c 0
 769 298 699 379 610 383 c 0xdc
644 1 m 2
 292 0 l 1
 292 0 326 20 328 37 c 0
 333 90 340 205 340 394 c 0
 340 570 332 697 327 753 c 1
 215 753 l 1
 103 745 65 571 65 571 c 1
 65 571 65 660 58 710 c 0
 53 750 40 800 40 800 c 1
 40 800 99 789 186 787 c 2
 471 787 l 1
 471 787 451 771 448 751 c 0
 440 691 435 581 434 418 c 1xdc
 644 417 l 2
 759 417 852 324 852 209 c 0
 852 94 759 1 644 1 c 2
EndSplineSet
Validated: 1
EndChar

StartChar: uni044B
Encoding: 1099 1099 104
Width: 892
GlyphClass: 2
Flags: MW
HStem: 1 33<392 398.5 332 449.5> 377 41<182 182> 384 33 767 20G<41 229 229 229 642 852 852 852> 767 20G<41 229 229 229 642 852 852 852>
VStem: 88 94<299.5 377 291 418 291 482.5> 517 83<164.5 253.5> 698 94<406.5 474 314.5 540>
LayerCount: 2
Fore
SplineSet
75 37 m 0xa7
 80 90 88 205 88 394 c 0
 88 571 83 698 75 754 c 0
 72 772 41 787 41 787 c 1
 229 787 l 1
 229 787 197 774 195 755 c 0
 191 701 183 581 182 418 c 1xd7
 392 417 l 2
 507 417 600 324 600 209 c 0
 600 94 507 1 392 1 c 2
 120 0 l 1
 40 0 l 1
 40 0 74 20 75 37 c 0xa7
358 383 m 0
 350 383 341 384 331 384 c 0xa7
 287 384 229 380 182 377 c 1
 182 205 189 96 193 42 c 1
 246 38 310 34 354 34 c 0
 443 34 517 120 517 209 c 0
 517 298 447 379 358 383 c 0
802 62 m 0
 805 21 850 2 850 2 c 1
 639 2 l 1
 639 2 685 34 688 68 c 0
 693 133 698 324 698 489 c 0
 698 591 696 683 691 728 c 0
 687 762 642 787 642 787 c 1
 852 787 l 1x97
 852 787 807 771 803 732 c 0
 797 668 792 552 792 396 c 0
 792 233 797 123 802 62 c 0
EndSplineSet
Validated: 1
EndChar

StartChar: afii10094
Encoding: 1100 1100 105
Width: 629
GlyphClass: 2
Flags: MW
HStem: 0 33<331 391> 376 41<181 181> 383 33
VStem: 87 94<299.5 376 290 417 290 482.5> 516 83<163.5 252.5>
LayerCount: 2
Fore
SplineSet
357 383 m 1xb8
 334 383 l 2xb8
 290 383 229 379 181 376 c 1xd8
 181 204 189 95 193 41 c 1
 246 37 309 33 353 33 c 0
 442 33 516 119 516 208 c 0
 516 297 446 379 357 383 c 1xb8
75 35 m 0
 80 88 87 205 87 394 c 0
 87 571 79 698 74 754 c 0
 71 772 40 787 40 787 c 1
 228 787 l 1
 228 787 197 774 194 755 c 0
 190 701 182 580 181 417 c 1xd8
 391 416 l 2
 506 416 599 323 599 208 c 0
 599 93 506 0 391 0 c 2
 119 0 l 1
 40 0 l 1
 40 0 73 18 75 35 c 0
EndSplineSet
Validated: 1
EndChar

StartChar: uni044D
Encoding: 1101 1101 106
Width: 752
GlyphClass: 2
Flags: MW
HStem: -5 45<296.5 344.5 285.5 403> 750 46<284.5 325 284.5 334>
VStem: 613 99<414 443.5>
LayerCount: 2
Fore
SplineSet
397 787 m 0
 584 746 712 580 712 396 c 0
 712 367 709 339 703 310 c 0
 662 123 495 -5 311 -5 c 0
 282 -5 254 -2 225 4 c 0
 173 15 126 36 84 65 c 0
 76 71 67 74 62 72 c 1
 40 196 l 1
 78 122 147 66 234 47 c 0
 255 43 275 40 296 40 c 0
 393 40 483 90 536 170 c 0
 563 212 584 260 597 311 c 1
 597 311 447 348 397 358 c 0
 386 360 377 361 368 361 c 0
 314 361 290 327 290 327 c 1
 322 464 l 1
 322 464 331 409 409 389 c 0
 458 377 605 343 605 343 c 1
 610 372 613 400 613 428 c 0
 613 459 610 489 605 519 c 0
 583 627 500 718 385 743 c 0
 365 747 344 750 324 750 c 0
 235 750 152 708 98 639 c 1
 132 775 l 1
 135 768 154 764 158 766 c 0
 206 786 258 796 311 796 c 0
 339 796 368 793 397 787 c 0
EndSplineSet
Validated: 1
EndChar

StartChar: afii10096
Encoding: 1102 1102 107
Width: 1111
GlyphClass: 2
Flags: MW
HStem: -12 46<634.5 679.5> 377 34<204 259 204 259> 751 48<650.5 696>
VStem: 110 94<312.5 377 303 411 411 471> 259 101<377 447.5 411 447.5> 973 98<338.5 370>
LayerCount: 2
Fore
SplineSet
368 518 m 0
 363 493 360 463 360 432 c 0
 360 397 364 361 371 327 c 0
 384 268 415 201 439 164 c 0
 488 88 584 34 685 34 c 0
 704 34 724 36 743 40 c 0
 863 66 952 167 968 277 c 0
 971 297 973 324 973 353 c 0
 973 387 970 423 964 455 c 0
 951 519 924 585 888 631 c 0
 834 701 744 751 648 751 c 0
 629 751 610 749 591 745 c 0
 475 720 389 621 368 518 c 0
259 377 m 1
 204 377 l 1
 204 229 210 126 214 66 c 0
 217 32 262 1 262 1 c 1
 52 1 l 1
 52 1 96 19 100 60 c 0
 105 121 110 231 110 394 c 0
 110 548 104 664 99 728 c 0
 95 768 50 787 50 787 c 1
 260 787 l 1
 260 787 215 760 211 726 c 0
 205 679 204 588 204 488 c 2
 204 411 l 1
 259 411 l 1
 267 591 394 750 578 790 c 0
 607 796 636 799 665 799 c 0
 852 799 1020 670 1062 480 c 0
 1068 451 1071 422 1071 393 c 0
 1071 206 942 39 752 -3 c 0
 723 -9 694 -12 665 -12 c 0
 478 -12 310 117 268 307 c 0
 263 331 260 354 259 377 c 1
EndSplineSet
Validated: 1
EndChar

StartChar: afii10097
Encoding: 1103 1103 108
Width: 754
GlyphClass: 2
Flags: MW
HStem: 386 32<491 491> 755 33
VStem: 198 80<544 630 544 642.5> 559 94<312.5 385 418 471 312.5 493 312.5 542.5>
LayerCount: 2
Fore
SplineSet
278 587 m 0
 278 501 349 418 435 418 c 2
 559 418 l 1
 559 493 l 2
 559 592 558 681 552 727 c 0
 551 736 547 744 542 751 c 1
 517 753 488 755 461 755 c 0
 450 755 440 755 430 754 c 0
 345 750 278 673 278 587 c 0
663 61 m 0
 667 20 711 1 711 1 c 1
 500 1 l 1
 500 1 546 33 549 67 c 0
 553 128 559 234 559 385 c 1
 491 386 l 1
 225 54 l 2
 221 49 220 43 220 39 c 0
 220 15 264 1 264 1 c 1
 30 2 l 1
 30 2 96 26 142 90 c 1
 144 92 l 1
 381 388 l 1
 278 396 198 482 198 587 c 0
 198 698 288 788 399 788 c 2
 595 787 l 1
 714 787 l 1
 714 787 668 769 664 729 c 0
 659 665 653 548 653 394 c 0
 653 231 658 122 663 61 c 0
EndSplineSet
Validated: 1
EndChar

StartChar: uni0451
Encoding: 1105 1105 109
Width: 645
GlyphClass: 2
Flags: MW
HStem: -11 21G<605 605> 2 31<204 422 204 428> 378 34<191 343 191 191> 754 34<204 421 204 204> 781 20G<605 605> 781 20G<605 605>
VStem: 97 94<378 378 378 412 378 484>
LayerCount: 2
Fore
SplineSet
86 38 m 0x62
 91 87 97 200 97 397 c 0
 97 571 89 698 85 754 c 0
 82 772 50 788 50 788 c 1
 428 788 l 2x72
 531 788 605 801 605 801 c 1x2a
 605 801 593 751 587 711 c 0
 580 661 580 572 580 572 c 1
 580 572 539 754 421 754 c 2
 204 754 l 1
 200 698 192 576 191 412 c 1
 342 413 l 2
 426 415 446 467 446 467 c 1
 446 323 l 1
 446 323 424 375 343 378 c 2
 191 378 l 1
 192 193 200 81 204 33 c 1
 422 33 l 2x72
 539 34 580 217 580 217 c 1
 580 217 580 129 587 79 c 0
 593 38 605 -11 605 -11 c 1xa2
 605 -11 531 2 428 2 c 2
 50 2 l 1
 50 2 83 20 86 38 c 0x62
304 865 m 0
 304 862 271 849 251 828 c 1
 251 828 206 862 206 879 c 0
 206 884 242 901 253 913 c 0
 258 913 283 880 304 865 c 0
449 861 m 0
 449 858 416 845 396 824 c 1
 396 824 351 858 351 875 c 0
 351 880 387 897 398 909 c 0
 403 909 428 876 449 861 c 0
EndSplineSet
Validated: 1
EndChar

StartChar: uni2116
Encoding: 8470 8470 110
Width: 980
GlyphClass: 2
Flags: MW
HStem: 0 21G 476 28 538.038 13.3768 750.998 13.5487 768 20G<480 688 688 688>
VStem: 81.3468 93.6532 537 94<326 475> 707.846 27.1993 905.982 26.565
LayerCount: 2
Fore
SplineSet
641 60 m 0
 644 19 689 -0.0009765625 689 -0.0009765625 c 1
 521 -0.0009765625 l 1
 184 701.999023438 l 1
 180 633.999023438 175 529.999023438 175 396.999023438 c 0
 175 229.999023438 181 119.999023438 185 59.9990234375 c 0
 188 18.9990234375 232 -0.0009765625 232 -0.0009765625 c 1
 23 -0.0009765625 l 1
 23 -0.0009765625 67 26.9990234375 70 59.9990234375 c 2
 70 59.9990234375 79 230.999023438 81 396.999023438 c 0
 81.236328125 415.301757812 81.3466796875 433.4375 81.3466796875 451.250976562 c 0
 81.3466796875 584.29296875 75.1728515625 699.368164062 68.9990234375 731.999023438 c 0
 62.9990234375 764.999023438 22.9990234375 787.999023438 22.9990234375 787.999023438 c 1
 190.999023438 787.999023438 l 1
 190.921875 787.84375 190.8828125 787.603515625 190.8828125 787.278320312 c 0
 190.8828125 775.002929688 246.047851562 641.696289062 361 404 c 0
 428 266 488 159 528 90 c 1
 532 154 537 255 537 397 c 0
 537 553 531 671 526 735 c 0
 524 768 480 788 480 788 c 1
 688 788 l 1
 688 788 645 777 642 735 c 0
 637 672 631 554 631 397 c 0
 631 230 637 120 641 60 c 0
710 626.999023438 m 0
 708.536132812 634.317382812 707.84765625 641.559570312 707.84765625 648.665039062 c 0
 707.84765625 704.67578125 750.743164062 752.237304688 796.000976562 761.999023438 c 0
 804.068359375 763.71875 812.118164062 764.545898438 820.043945312 764.545898438 c 0
 872.048828125 764.545898438 918.719726562 728.931640625 930 675.999023438 c 0
 931.719726562 667.931640625 932.546875 659.864257812 932.546875 651.908203125 c 0
 932.546875 599.704101562 896.932617188 552.280273438 844 541 c 0
 834.712890625 539.020507812 825.47265625 538.038085938 816.430664062 538.038085938 c 0
 766.078125 538.038085938 721.868164062 568.50390625 710 626.999023438 c 0
737.001953125 685.999023438 m 0
 735.653320312 678.872070312 735.044921875 671.633789062 735.044921875 664.44140625 c 0
 735.044921875 634.294921875 745.696289062 604.955078125 757 588 c 0
 770.541015625 566.842773438 797.689453125 551.415039062 826.323242188 551.415039062 c 0
 831.524414062 551.415039062 836.774414062 551.923828125 842.000976562 553 c 0
 881.962890625 562.158203125 905.983398438 594.881835938 905.983398438 640.20703125 c 0
 905.983398438 649.32421875 905.01171875 658.951171875 903.001953125 668.999023438 c 0
 894.1328125 711.571289062 862.451171875 750.997070312 817.02734375 750.997070312 c 0
 811.236328125 750.997070312 805.221679688 750.356445312 799.001953125 748.999023438 c 0
 767.001953125 741.999023438 743.001953125 713.999023438 737.001953125 685.999023438 c 0
726 475.999023438 m 2
 721 475.999023438 708 500.999023438 708 503.999023438 c 1
 917 503.999023438 l 2
 919 503.999023438 932 479.999023438 932 476.999023438 c 2
 932 475.999023438 l 1
 726 475.999023438 l 2
EndSplineSet
Validated: 524289
EndChar
